{"glyphs":{"0":{"ha":952,"x_min":0,"x_max":0,"o":"m 408 -20 b 930 541 682 -35 880 216 b 598 1108 984 897 824 1099 b 75 545 337 1118 125 864 b 408 -20 26 235 150 -6 z m 440 205 b 300 545 315 206 264 349 b 564 883 337 741 439 884 b 704 543 689 882 740 739 b 440 205 669 349 566 205 z "},"1":{"ha":479,"x_min":0,"x_max":0,"o":"m 459 1107 l 166 1018 l 121 789 l 239 823 l 79 0 l 305 0 l 520 1107 z "},"2":{"ha":899,"x_min":0,"x_max":0,"o":"m 899 728 b 555 1113 931 913 818 1113 b 146 760 341 1113 184 979 l 326 709 b 532 893 346 821 442 893 b 667 715 624 893 684 819 b -24 40 641 559 452 395 l -31 0 l 772 0 l 815 219 l 499 219 b 899 728 722 336 872 570 z "},"3":{"ha":817,"x_min":0,"x_max":0,"o":"m 799 830 b 521 1128 829 994 699 1128 b 187 882 373 1128 231 1036 l 379 836 b 484 912 396 892 443 912 b 569 812 541 912 581 872 b 355 673 553 732 460 673 l 298 548 b 532 350 446 548 551 473 b 370 203 518 263 452 203 b 234 312 294 203 239 254 l 18 257 b 354 -14 26 130 156 -14 b 755 334 555 -14 720 134 b 644 616 781 481 722 574 b 799 830 723 654 783 744 z "},"4":{"ha":911,"x_min":0,"x_max":0,"o":"m 891 454 l 786 454 l 845 757 l 619 757 l 560 454 l 362 454 l 751 1097 l 505 1098 l -19 235 l 517 235 l 472 0 l 698 0 l 743 235 l 848 235 z "},"5":{"ha":839,"x_min":0,"x_max":0,"o":"m 495 762 b 356 724 441 762 397 751 l 408 876 l 789 876 l 832 1094 l 295 1094 l 106 526 l 246 463 b 407 550 307 534 350 550 b 560 385 521 550 575 490 b 377 206 545 283 475 206 b 233 288 313 206 256 238 l 11 218 b 355 -13 51 75 190 -13 b 786 385 584 -13 757 159 b 495 762 814 603 693 762 z "},"6":{"ha":831,"x_min":0,"x_max":0,"o":"m 519 697 b 460 689 498 697 479 694 l 778 1093 l 525 1093 b 47 402 153 644 94 568 b 367 -18 -3 182 141 -18 b 773 358 570 -18 749 136 b 519 697 798 578 659 697 z m 553 366 b 395 201 543 289 493 201 b 265 366 306 201 253 273 b 429 531 276 450 338 531 b 553 366 511 531 567 467 z "},"7":{"ha":754,"x_min":0,"x_max":0,"o":"m 162 1093 l 120 879 l 504 879 l 14 0 l 268 0 l 865 1053 l 873 1093 z "},"8":{"ha":844,"x_min":0,"x_max":0,"o":"m 357 -23 b 780 330 592 -23 757 141 b 633 619 798 478 724 593 b 823 831 739 647 807 733 b 544 1117 848 987 732 1117 b 186 831 353 1117 210 983 b 288 619 170 728 212 643 b 33 330 180 603 59 486 b 357 -23 -1 138 126 -23 z m 489 718 b 399 817 435 718 388 749 b 515 913 408 876 456 913 b 604 814 572 913 615 879 b 489 718 594 754 546 718 z m 390 196 b 258 342 296 196 243 262 b 435 497 273 423 348 497 b 559 344 515 497 571 435 b 390 196 547 256 479 196 z "},"9":{"ha":833,"x_min":0,"x_max":0,"o":"m 519 1109 b 113 734 316 1109 137 956 b 367 395 88 514 227 395 b 425 403 388 395 406 397 l 109 0 l 361 0 b 839 690 733 450 792 524 b 519 1109 901 907 745 1109 z m 621 726 b 456 561 610 642 548 561 b 332 726 375 561 319 625 b 491 891 342 803 393 891 b 621 726 580 891 633 819 z "}," ":{"ha":407,"x_min":0,"x_max":0,"o":""},"A":{"ha":1040,"x_min":0,"x_max":0,"o":"m 718 0 l 947 0 l 676 1120 l 640 1120 l -65 0 l 197 0 l 286 153 l 684 153 z m 396 340 l 576 648 l 643 340 z "},"a":{"ha":1040,"x_min":0,"x_max":0,"o":"m 718 0 l 947 0 l 676 1120 l 640 1120 l -65 0 l 197 0 l 286 153 l 684 153 z m 396 340 l 576 648 l 643 340 z "},"Á":{"ha":1040,"x_min":0,"x_max":0,"o":"m 872 1405 l 682 1405 l 513 1183 l 668 1183 z m 718 0 l 947 0 l 676 1120 l 640 1120 l -65 0 l 197 0 l 286 153 l 684 153 z m 396 340 l 576 648 l 643 340 z "},"á":{"ha":1040,"x_min":0,"x_max":0,"o":"m 872 1405 l 682 1405 l 513 1183 l 668 1183 z m 718 0 l 947 0 l 676 1120 l 640 1120 l -65 0 l 197 0 l 286 153 l 684 153 z m 396 340 l 576 648 l 643 340 z "},"Ă":{"ha":1040,"x_min":0,"x_max":0,"o":"m 682 1196 b 909 1393 800 1196 887 1277 l 807 1393 b 693 1291 795 1333 748 1291 b 616 1393 640 1291 606 1337 l 515 1393 b 682 1196 496 1288 558 1196 z m 718 0 l 947 0 l 676 1120 l 640 1120 l -65 0 l 197 0 l 286 153 l 684 153 z m 396 340 l 576 648 l 643 340 z "},"ă":{"ha":1040,"x_min":0,"x_max":0,"o":"m 682 1196 b 909 1393 800 1196 887 1277 l 807 1393 b 693 1291 795 1333 748 1291 b 616 1393 640 1291 606 1337 l 515 1393 b 682 1196 496 1288 558 1196 z m 718 0 l 947 0 l 676 1120 l 640 1120 l -65 0 l 197 0 l 286 153 l 684 153 z m 396 340 l 576 648 l 643 340 z "},"Â":{"ha":1040,"x_min":0,"x_max":0,"o":"m 701 1289 l 780 1193 l 942 1193 l 764 1392 l 656 1392 l 404 1193 l 585 1193 z m 718 0 l 947 0 l 676 1120 l 640 1120 l -65 0 l 197 0 l 286 153 l 684 153 z m 396 340 l 576 648 l 643 340 z "},"â":{"ha":1040,"x_min":0,"x_max":0,"o":"m 701 1289 l 780 1193 l 942 1193 l 764 1392 l 656 1392 l 404 1193 l 585 1193 z m 718 0 l 947 0 l 676 1120 l 640 1120 l -65 0 l 197 0 l 286 153 l 684 153 z m 396 340 l 576 648 l 643 340 z "},"Ä":{"ha":1040,"x_min":0,"x_max":0,"o":"m 524 1206 b 621 1287 568 1206 612 1242 b 555 1369 629 1331 599 1369 b 457 1287 510 1369 466 1331 b 524 1206 448 1242 479 1206 z m 827 1206 b 925 1287 872 1206 916 1242 b 859 1369 934 1331 903 1369 b 762 1287 814 1369 770 1331 b 827 1206 753 1242 783 1206 z m 718 0 l 947 0 l 676 1120 l 640 1120 l -65 0 l 197 0 l 286 153 l 684 153 z m 396 340 l 576 648 l 643 340 z "},"ä":{"ha":1040,"x_min":0,"x_max":0,"o":"m 524 1206 b 621 1287 568 1206 612 1242 b 555 1369 629 1331 599 1369 b 457 1287 510 1369 466 1331 b 524 1206 448 1242 479 1206 z m 827 1206 b 925 1287 872 1206 916 1242 b 859 1369 934 1331 903 1369 b 762 1287 814 1369 770 1331 b 827 1206 753 1242 783 1206 z m 718 0 l 947 0 l 676 1120 l 640 1120 l -65 0 l 197 0 l 286 153 l 684 153 z m 396 340 l 576 648 l 643 340 z "},"À":{"ha":1040,"x_min":0,"x_max":0,"o":"m 795 1183 l 712 1405 l 522 1405 l 640 1183 z m 718 0 l 947 0 l 676 1120 l 640 1120 l -65 0 l 197 0 l 286 153 l 684 153 z m 396 340 l 576 648 l 643 340 z "},"à":{"ha":1040,"x_min":0,"x_max":0,"o":"m 795 1183 l 712 1405 l 522 1405 l 640 1183 z m 718 0 l 947 0 l 676 1120 l 640 1120 l -65 0 l 197 0 l 286 153 l 684 153 z m 396 340 l 576 648 l 643 340 z "},"Ā":{"ha":1040,"x_min":0,"x_max":0,"o":"m 899 1336 l 504 1336 l 482 1226 l 877 1226 z m 718 0 l 947 0 l 676 1120 l 640 1120 l -65 0 l 197 0 l 286 153 l 684 153 z m 396 340 l 576 648 l 643 340 z "},"ā":{"ha":1040,"x_min":0,"x_max":0,"o":"m 899 1336 l 504 1336 l 482 1226 l 877 1226 z m 718 0 l 947 0 l 676 1120 l 640 1120 l -65 0 l 197 0 l 286 153 l 684 153 z m 396 340 l 576 648 l 643 340 z "},"Ą":{"ha":1040,"x_min":0,"x_max":0,"o":"m 932 -210 b 856 -221 899 -218 869 -221 b 807 -165 810 -221 807 -180 b 947 0 807 -114 851 -70 l 676 1120 l 640 1120 l -65 0 l 197 0 l 286 153 l 684 153 l 718 0 l 798 0 b 652 -217 716 -41 652 -121 b 844 -376 652 -316 720 -376 b 956 -362 876 -376 914 -372 z m 396 340 l 576 648 l 643 340 z "},"ą":{"ha":1040,"x_min":0,"x_max":0,"o":"m 932 -210 b 856 -221 899 -218 869 -221 b 807 -165 810 -221 807 -180 b 947 0 807 -114 851 -70 l 676 1120 l 640 1120 l -65 0 l 197 0 l 286 153 l 684 153 l 718 0 l 798 0 b 652 -217 716 -41 652 -121 b 844 -376 652 -316 720 -376 b 956 -362 876 -376 914 -372 z m 396 340 l 576 648 l 643 340 z "},"Å":{"ha":1040,"x_min":0,"x_max":0,"o":"m 671 1158 b 846 1309 757 1158 831 1225 b 723 1459 861 1398 803 1459 b 545 1309 636 1459 559 1394 b 671 1158 531 1225 585 1158 z m 634 1308 b 707 1370 641 1344 673 1370 b 757 1308 741 1370 764 1343 b 684 1247 750 1272 718 1247 b 634 1308 650 1247 627 1274 z m 718 0 l 947 0 l 676 1120 l 640 1120 l -65 0 l 197 0 l 286 153 l 684 153 z m 396 340 l 576 648 l 643 340 z "},"å":{"ha":1040,"x_min":0,"x_max":0,"o":"m 671 1158 b 846 1309 757 1158 831 1225 b 723 1459 861 1398 803 1459 b 545 1309 636 1459 559 1394 b 671 1158 531 1225 585 1158 z m 634 1308 b 707 1370 641 1344 673 1370 b 757 1308 741 1370 764 1343 b 684 1247 750 1272 718 1247 b 634 1308 650 1247 627 1274 z m 718 0 l 947 0 l 676 1120 l 640 1120 l -65 0 l 197 0 l 286 153 l 684 153 z m 396 340 l 576 648 l 643 340 z "},"Ã":{"ha":1040,"x_min":0,"x_max":0,"o":"m 595 1286 b 785 1200 663 1286 682 1200 b 984 1358 833 1200 927 1215 l 886 1398 b 793 1312 866 1349 834 1312 b 603 1398 725 1312 706 1398 b 404 1240 555 1398 460 1383 l 501 1200 b 595 1286 522 1249 553 1286 z m 640 1120 l -65 0 l 197 0 l 286 153 l 684 153 l 718 0 l 947 0 l 676 1120 z m 396 340 l 576 648 l 643 340 z "},"ã":{"ha":1040,"x_min":0,"x_max":0,"o":"m 595 1286 b 785 1200 663 1286 682 1200 b 984 1358 833 1200 927 1215 l 886 1398 b 793 1312 866 1349 834 1312 b 603 1398 725 1312 706 1398 b 404 1240 555 1398 460 1383 l 501 1200 b 595 1286 522 1249 553 1286 z m 640 1120 l -65 0 l 197 0 l 286 153 l 684 153 l 718 0 l 947 0 l 676 1120 z m 396 340 l 576 648 l 643 340 z "},"Æ":{"ha":1357,"x_min":0,"x_max":0,"o":"m 1381 877 l 1423 1093 l 652 1093 l -65 0 l 194 0 l 304 168 l 611 168 l 578 0 l 1211 0 l 1254 218 l 847 218 l 890 444 l 1236 444 l 1279 663 l 933 663 l 975 877 z m 432 363 l 741 833 l 649 363 z "},"æ":{"ha":1357,"x_min":0,"x_max":0,"o":"m 1381 877 l 1423 1093 l 652 1093 l -65 0 l 194 0 l 304 168 l 611 168 l 578 0 l 1211 0 l 1254 218 l 847 218 l 890 444 l 1236 444 l 1279 663 l 933 663 l 975 877 z m 432 363 l 741 833 l 649 363 z "},"B":{"ha":854,"x_min":0,"x_max":0,"o":"m 635 616 b 772 803 688 633 753 694 b 509 1093 800 962 688 1093 l 229 1093 l 16 0 l 399 0 b 809 325 626 0 775 134 b 635 616 842 509 748 616 z m 567 774 b 441 666 553 703 512 666 l 372 666 l 413 880 l 479 880 b 567 774 545 880 578 832 z m 600 340 b 418 214 586 265 523 214 l 284 214 l 334 473 l 469 473 b 600 340 563 473 615 420 z "},"b":{"ha":854,"x_min":0,"x_max":0,"o":"m 635 616 b 772 803 688 633 753 694 b 509 1093 800 962 688 1093 l 229 1093 l 16 0 l 399 0 b 809 325 626 0 775 134 b 635 616 842 509 748 616 z m 567 774 b 441 666 553 703 512 666 l 372 666 l 413 880 l 479 880 b 567 774 545 880 578 832 z m 600 340 b 418 214 586 265 523 214 l 284 214 l 334 473 l 469 473 b 600 340 563 473 615 420 z "},"C":{"ha":1006,"x_min":0,"x_max":0,"o":"m 514 -21 b 913 133 666 -21 806 39 l 817 324 b 545 199 735 253 643 199 b 304 559 377 199 264 356 b 667 892 342 748 500 892 b 903 736 758 892 828 847 l 1069 882 b 715 1114 998 1019 864 1103 b 77 559 472 1129 142 941 b 514 -21 21 227 206 -21 z "},"c":{"ha":1006,"x_min":0,"x_max":0,"o":"m 514 -21 b 913 133 666 -21 806 39 l 817 324 b 545 199 735 253 643 199 b 304 559 377 199 264 356 b 667 892 342 748 500 892 b 903 736 758 892 828 847 l 1069 882 b 715 1114 998 1019 864 1103 b 77 559 472 1129 142 941 b 514 -21 21 227 206 -21 z "},"Ć":{"ha":1006,"x_min":0,"x_max":0,"o":"m 649 1183 l 853 1405 l 663 1405 l 494 1183 z m 514 -21 b 913 133 666 -21 806 39 l 817 324 b 545 199 735 253 643 199 b 304 559 377 199 264 356 b 667 892 342 748 500 892 b 903 736 758 892 828 847 l 1069 882 b 715 1114 998 1019 864 1103 b 77 559 472 1129 142 941 b 514 -21 21 227 206 -21 z "},"ć":{"ha":1006,"x_min":0,"x_max":0,"o":"m 649 1183 l 853 1405 l 663 1405 l 494 1183 z m 514 -21 b 913 133 666 -21 806 39 l 817 324 b 545 199 735 253 643 199 b 304 559 377 199 264 356 b 667 892 342 748 500 892 b 903 736 758 892 828 847 l 1069 882 b 715 1114 998 1019 864 1103 b 77 559 472 1129 142 941 b 514 -21 21 227 206 -21 z "},"Č":{"ha":1006,"x_min":0,"x_max":0,"o":"m 962 1392 l 781 1392 l 665 1295 l 586 1392 l 424 1392 l 602 1193 l 710 1193 z m 514 -21 b 913 133 666 -21 806 39 l 817 324 b 545 199 735 253 643 199 b 304 559 377 199 264 356 b 667 892 342 748 500 892 b 903 736 758 892 828 847 l 1069 882 b 715 1114 998 1019 864 1103 b 77 559 472 1129 142 941 b 514 -21 21 227 206 -21 z "},"č":{"ha":1006,"x_min":0,"x_max":0,"o":"m 962 1392 l 781 1392 l 665 1295 l 586 1392 l 424 1392 l 602 1193 l 710 1193 z m 514 -21 b 913 133 666 -21 806 39 l 817 324 b 545 199 735 253 643 199 b 304 559 377 199 264 356 b 667 892 342 748 500 892 b 903 736 758 892 828 847 l 1069 882 b 715 1114 998 1019 864 1103 b 77 559 472 1129 142 941 b 514 -21 21 227 206 -21 z "},"Ç":{"ha":1006,"x_min":0,"x_max":0,"o":"m 913 133 l 817 324 b 545 199 735 253 643 199 b 304 559 377 199 264 356 b 667 892 342 748 500 892 b 903 736 758 892 828 847 l 1069 882 b 715 1114 998 1019 864 1103 b 77 559 472 1129 142 941 b 442 -16 26 253 178 19 l 351 -111 l 372 -146 b 406 -142 385 -144 397 -142 b 449 -178 443 -142 452 -160 b 259 -240 442 -215 385 -240 l 288 -373 b 600 -172 443 -373 578 -278 b 529 -64 612 -109 578 -64 b 500 -66 518 -64 511 -64 l 545 -20 b 913 133 685 -13 814 45 z "},"ç":{"ha":1006,"x_min":0,"x_max":0,"o":"m 913 133 l 817 324 b 545 199 735 253 643 199 b 304 559 377 199 264 356 b 667 892 342 748 500 892 b 903 736 758 892 828 847 l 1069 882 b 715 1114 998 1019 864 1103 b 77 559 472 1129 142 941 b 442 -16 26 253 178 19 l 351 -111 l 372 -146 b 406 -142 385 -144 397 -142 b 449 -178 443 -142 452 -160 b 259 -240 442 -215 385 -240 l 288 -373 b 600 -172 443 -373 578 -278 b 529 -64 612 -109 578 -64 b 500 -66 518 -64 511 -64 l 545 -20 b 913 133 685 -13 814 45 z "},"Ċ":{"ha":1006,"x_min":0,"x_max":0,"o":"m 656 1204 b 770 1299 708 1204 760 1246 b 693 1394 779 1350 745 1394 b 580 1298 641 1394 589 1350 b 656 1204 570 1247 604 1204 z m 514 -21 b 913 133 666 -21 806 39 l 817 324 b 545 199 735 253 643 199 b 304 559 377 199 264 356 b 667 892 342 748 500 892 b 903 736 758 892 828 847 l 1069 882 b 715 1114 998 1019 864 1103 b 77 559 472 1129 142 941 b 514 -21 21 227 206 -21 z "},"ċ":{"ha":1006,"x_min":0,"x_max":0,"o":"m 656 1204 b 770 1299 708 1204 760 1246 b 693 1394 779 1350 745 1394 b 580 1298 641 1394 589 1350 b 656 1204 570 1247 604 1204 z m 514 -21 b 913 133 666 -21 806 39 l 817 324 b 545 199 735 253 643 199 b 304 559 377 199 264 356 b 667 892 342 748 500 892 b 903 736 758 892 828 847 l 1069 882 b 715 1114 998 1019 864 1103 b 77 559 472 1129 142 941 b 514 -21 21 227 206 -21 z "},"D":{"ha":1008,"x_min":0,"x_max":0,"o":"m 545 1093 l 229 1093 l 16 0 l 333 0 b 986 545 416 0 918 0 b 545 1093 1038 964 758 1094 z m 757 547 b 376 219 728 348 585 219 l 285 219 l 412 876 l 501 876 b 757 547 654 876 788 765 z "},"d":{"ha":1008,"x_min":0,"x_max":0,"o":"m 545 1093 l 229 1093 l 16 0 l 333 0 b 986 545 416 0 918 0 b 545 1093 1038 964 758 1094 z m 757 547 b 376 219 728 348 585 219 l 285 219 l 412 876 l 501 876 b 757 547 654 876 788 765 z "},"Ð":{"ha":1065,"x_min":0,"x_max":0,"o":"m 602 1093 l 285 1093 l 192 614 l 68 614 l 41 470 l 164 470 l 73 0 l 389 0 b 1042 545 472 0 975 0 b 602 1093 1095 964 814 1094 z m 813 547 b 432 219 785 348 641 219 l 341 219 l 390 470 l 530 470 l 557 613 l 418 613 l 469 876 l 557 876 b 813 547 710 876 844 765 z "},"ð":{"ha":1065,"x_min":0,"x_max":0,"o":"m 602 1093 l 285 1093 l 192 614 l 68 614 l 41 470 l 164 470 l 73 0 l 389 0 b 1042 545 472 0 975 0 b 602 1093 1095 964 814 1094 z m 813 547 b 432 219 785 348 641 219 l 341 219 l 390 470 l 530 470 l 557 613 l 418 613 l 469 876 l 557 876 b 813 547 710 876 844 765 z "},"Ď":{"ha":1008,"x_min":0,"x_max":0,"o":"m 713 1193 l 965 1392 l 784 1392 l 669 1295 l 589 1392 l 427 1392 l 606 1193 z m 545 1093 l 229 1093 l 16 0 l 333 0 b 986 545 416 0 918 0 b 545 1093 1038 964 758 1094 z m 757 547 b 376 219 728 348 585 219 l 285 219 l 412 876 l 501 876 b 757 547 654 876 788 765 z "},"ď":{"ha":1008,"x_min":0,"x_max":0,"o":"m 713 1193 l 965 1392 l 784 1392 l 669 1295 l 589 1392 l 427 1392 l 606 1193 z m 545 1093 l 229 1093 l 16 0 l 333 0 b 986 545 416 0 918 0 b 545 1093 1038 964 758 1094 z m 757 547 b 376 219 728 348 585 219 l 285 219 l 412 876 l 501 876 b 757 547 654 876 788 765 z "},"Đ":{"ha":1065,"x_min":0,"x_max":0,"o":"m 602 1093 l 285 1093 l 192 614 l 68 614 l 41 470 l 164 470 l 73 0 l 389 0 b 1042 545 472 0 975 0 b 602 1093 1095 964 814 1094 z m 813 547 b 432 219 785 348 641 219 l 341 219 l 390 470 l 530 470 l 557 613 l 418 613 l 469 876 l 557 876 b 813 547 710 876 844 765 z "},"đ":{"ha":1065,"x_min":0,"x_max":0,"o":"m 602 1093 l 285 1093 l 192 614 l 68 614 l 41 470 l 164 470 l 73 0 l 389 0 b 1042 545 472 0 975 0 b 602 1093 1095 964 814 1094 z m 813 547 b 432 219 785 348 641 219 l 341 219 l 390 470 l 530 470 l 557 613 l 418 613 l 469 876 l 557 876 b 813 547 710 876 844 765 z "},"E":{"ha":795,"x_min":0,"x_max":0,"o":"m 819 877 l 861 1093 l 229 1093 l 16 0 l 649 0 l 692 218 l 285 218 l 328 444 l 674 444 l 717 663 l 371 663 l 412 877 z "},"e":{"ha":795,"x_min":0,"x_max":0,"o":"m 819 877 l 861 1093 l 229 1093 l 16 0 l 649 0 l 692 218 l 285 218 l 328 444 l 674 444 l 717 663 l 371 663 l 412 877 z "},"É":{"ha":795,"x_min":0,"x_max":0,"o":"m 749 1405 l 559 1405 l 390 1183 l 545 1183 z m 819 877 l 861 1093 l 229 1093 l 16 0 l 649 0 l 692 218 l 285 218 l 328 444 l 674 444 l 717 663 l 371 663 l 412 877 z "},"é":{"ha":795,"x_min":0,"x_max":0,"o":"m 749 1405 l 559 1405 l 390 1183 l 545 1183 z m 819 877 l 861 1093 l 229 1093 l 16 0 l 649 0 l 692 218 l 285 218 l 328 444 l 674 444 l 717 663 l 371 663 l 412 877 z "},"Ĕ":{"ha":795,"x_min":0,"x_max":0,"o":"m 559 1196 b 786 1393 677 1196 764 1277 l 684 1393 b 570 1291 673 1333 625 1291 b 494 1393 517 1291 483 1337 l 392 1393 b 559 1196 373 1288 435 1196 z m 819 877 l 861 1093 l 229 1093 l 16 0 l 649 0 l 692 218 l 285 218 l 328 444 l 674 444 l 717 663 l 371 663 l 412 877 z "},"ĕ":{"ha":795,"x_min":0,"x_max":0,"o":"m 559 1196 b 786 1393 677 1196 764 1277 l 684 1393 b 570 1291 673 1333 625 1291 b 494 1393 517 1291 483 1337 l 392 1393 b 559 1196 373 1288 435 1196 z m 819 877 l 861 1093 l 229 1093 l 16 0 l 649 0 l 692 218 l 285 218 l 328 444 l 674 444 l 717 663 l 371 663 l 412 877 z "},"Ě":{"ha":795,"x_min":0,"x_max":0,"o":"m 606 1193 l 858 1392 l 677 1392 l 562 1295 l 482 1392 l 320 1392 l 498 1193 z m 819 877 l 861 1093 l 229 1093 l 16 0 l 649 0 l 692 218 l 285 218 l 328 444 l 674 444 l 717 663 l 371 663 l 412 877 z "},"ě":{"ha":795,"x_min":0,"x_max":0,"o":"m 606 1193 l 858 1392 l 677 1392 l 562 1295 l 482 1392 l 320 1392 l 498 1193 z m 819 877 l 861 1093 l 229 1093 l 16 0 l 649 0 l 692 218 l 285 218 l 328 444 l 674 444 l 717 663 l 371 663 l 412 877 z "},"Ê":{"ha":795,"x_min":0,"x_max":0,"o":"m 578 1289 l 657 1193 l 819 1193 l 641 1392 l 533 1392 l 281 1193 l 463 1193 z m 819 877 l 861 1093 l 229 1093 l 16 0 l 649 0 l 692 218 l 285 218 l 328 444 l 674 444 l 717 663 l 371 663 l 412 877 z "},"ê":{"ha":795,"x_min":0,"x_max":0,"o":"m 578 1289 l 657 1193 l 819 1193 l 641 1392 l 533 1392 l 281 1193 l 463 1193 z m 819 877 l 861 1093 l 229 1093 l 16 0 l 649 0 l 692 218 l 285 218 l 328 444 l 674 444 l 717 663 l 371 663 l 412 877 z "},"Ë":{"ha":795,"x_min":0,"x_max":0,"o":"m 401 1206 b 498 1287 445 1206 489 1242 b 432 1369 507 1331 476 1369 b 334 1287 387 1369 343 1331 b 401 1206 326 1242 356 1206 z m 705 1206 b 802 1287 749 1206 793 1242 b 736 1369 811 1331 781 1369 b 639 1287 692 1369 648 1331 b 705 1206 630 1242 660 1206 z m 819 877 l 861 1093 l 229 1093 l 16 0 l 649 0 l 692 218 l 285 218 l 328 444 l 674 444 l 717 663 l 371 663 l 412 877 z "},"ë":{"ha":795,"x_min":0,"x_max":0,"o":"m 401 1206 b 498 1287 445 1206 489 1242 b 432 1369 507 1331 476 1369 b 334 1287 387 1369 343 1331 b 401 1206 326 1242 356 1206 z m 705 1206 b 802 1287 749 1206 793 1242 b 736 1369 811 1331 781 1369 b 639 1287 692 1369 648 1331 b 705 1206 630 1242 660 1206 z m 819 877 l 861 1093 l 229 1093 l 16 0 l 649 0 l 692 218 l 285 218 l 328 444 l 674 444 l 717 663 l 371 663 l 412 877 z "},"Ė":{"ha":795,"x_min":0,"x_max":0,"o":"m 553 1204 b 666 1299 604 1204 656 1246 b 589 1394 675 1350 641 1394 b 476 1298 537 1394 486 1350 b 553 1204 466 1247 500 1204 z m 819 877 l 861 1093 l 229 1093 l 16 0 l 649 0 l 692 218 l 285 218 l 328 444 l 674 444 l 717 663 l 371 663 l 412 877 z "},"ė":{"ha":795,"x_min":0,"x_max":0,"o":"m 553 1204 b 666 1299 604 1204 656 1246 b 589 1394 675 1350 641 1394 b 476 1298 537 1394 486 1350 b 553 1204 466 1247 500 1204 z m 819 877 l 861 1093 l 229 1093 l 16 0 l 649 0 l 692 218 l 285 218 l 328 444 l 674 444 l 717 663 l 371 663 l 412 877 z "},"È":{"ha":795,"x_min":0,"x_max":0,"o":"m 673 1183 l 589 1405 l 399 1405 l 517 1183 z m 819 877 l 861 1093 l 229 1093 l 16 0 l 649 0 l 692 218 l 285 218 l 328 444 l 674 444 l 717 663 l 371 663 l 412 877 z "},"è":{"ha":795,"x_min":0,"x_max":0,"o":"m 673 1183 l 589 1405 l 399 1405 l 517 1183 z m 819 877 l 861 1093 l 229 1093 l 16 0 l 649 0 l 692 218 l 285 218 l 328 444 l 674 444 l 717 663 l 371 663 l 412 877 z "},"Ē":{"ha":795,"x_min":0,"x_max":0,"o":"m 776 1336 l 381 1336 l 359 1226 l 754 1226 z m 819 877 l 861 1093 l 229 1093 l 16 0 l 649 0 l 692 218 l 285 218 l 328 444 l 674 444 l 717 663 l 371 663 l 412 877 z "},"ē":{"ha":795,"x_min":0,"x_max":0,"o":"m 776 1336 l 381 1336 l 359 1226 l 754 1226 z m 819 877 l 861 1093 l 229 1093 l 16 0 l 649 0 l 692 218 l 285 218 l 328 444 l 674 444 l 717 663 l 371 663 l 412 877 z "},"Ę":{"ha":795,"x_min":0,"x_max":0,"o":"m 819 877 l 861 1093 l 229 1093 l 16 0 l 476 0 b 342 -210 400 -43 342 -119 b 534 -369 342 -309 411 -369 b 647 -355 567 -369 605 -365 l 623 -203 b 547 -214 590 -211 559 -214 b 498 -159 501 -214 498 -173 b 628 0 498 -109 539 -66 l 649 0 l 692 218 l 285 218 l 328 444 l 674 444 l 717 663 l 371 663 l 412 877 z "},"ę":{"ha":795,"x_min":0,"x_max":0,"o":"m 819 877 l 861 1093 l 229 1093 l 16 0 l 476 0 b 342 -210 400 -43 342 -119 b 534 -369 342 -309 411 -369 b 647 -355 567 -369 605 -365 l 623 -203 b 547 -214 590 -211 559 -214 b 498 -159 501 -214 498 -173 b 628 0 498 -109 539 -66 l 649 0 l 692 218 l 285 218 l 328 444 l 674 444 l 717 663 l 371 663 l 412 877 z "},"F":{"ha":757,"x_min":0,"x_max":0,"o":"m 819 877 l 862 1096 l 229 1096 l 16 -1 l 241 -1 l 327 437 l 673 437 l 715 656 l 369 656 l 412 877 z "},"f":{"ha":757,"x_min":0,"x_max":0,"o":"m 819 877 l 862 1096 l 229 1096 l 16 -1 l 241 -1 l 327 437 l 673 437 l 715 656 l 369 656 l 412 877 z "},"G":{"ha":1147,"x_min":0,"x_max":0,"o":"m 640 614 l 600 411 l 849 411 b 553 199 826 354 728 199 b 300 545 386 199 262 338 b 672 893 338 754 514 893 b 905 742 777 893 844 831 l 1061 924 b 728 1116 988 1029 862 1114 b 75 545 390 1116 127 881 b 522 -22 23 220 199 -22 b 1122 522 830 -22 1062 197 b 1133 614 1124 536 1130 568 z "},"g":{"ha":1147,"x_min":0,"x_max":0,"o":"m 640 614 l 600 411 l 849 411 b 553 199 826 354 728 199 b 300 545 386 199 262 338 b 672 893 338 754 514 893 b 905 742 777 893 844 831 l 1061 924 b 728 1116 988 1029 862 1114 b 75 545 390 1116 127 881 b 522 -22 23 220 199 -22 b 1122 522 830 -22 1062 197 b 1133 614 1124 536 1130 568 z "},"Ğ":{"ha":1147,"x_min":0,"x_max":0,"o":"m 736 1196 b 962 1393 853 1196 941 1277 l 861 1393 b 747 1291 849 1333 802 1291 b 670 1393 694 1291 659 1337 l 568 1393 b 736 1196 549 1288 612 1196 z m 640 614 l 600 411 l 849 411 b 553 199 826 354 728 199 b 300 545 386 199 262 338 b 672 893 338 754 514 893 b 905 742 777 893 844 831 l 1061 924 b 728 1116 988 1029 862 1114 b 75 545 390 1116 127 881 b 522 -22 23 220 199 -22 b 1122 522 830 -22 1062 197 b 1133 614 1124 536 1130 568 z "},"ğ":{"ha":1147,"x_min":0,"x_max":0,"o":"m 736 1196 b 962 1393 853 1196 941 1277 l 861 1393 b 747 1291 849 1333 802 1291 b 670 1393 694 1291 659 1337 l 568 1393 b 736 1196 549 1288 612 1196 z m 640 614 l 600 411 l 849 411 b 553 199 826 354 728 199 b 300 545 386 199 262 338 b 672 893 338 754 514 893 b 905 742 777 893 844 831 l 1061 924 b 728 1116 988 1029 862 1114 b 75 545 390 1116 127 881 b 522 -22 23 220 199 -22 b 1122 522 830 -22 1062 197 b 1133 614 1124 536 1130 568 z "},"Ģ":{"ha":1147,"x_min":0,"x_max":0,"o":"m 640 614 l 600 411 l 849 411 b 553 199 826 354 728 199 b 300 545 386 199 262 338 b 672 893 338 754 514 893 b 905 742 777 893 844 831 l 1061 924 b 728 1116 988 1029 862 1114 b 75 545 390 1116 127 881 b 522 -22 23 220 199 -22 b 1122 522 830 -22 1062 197 b 1133 614 1124 536 1130 568 z m 479 -84 b 361 -172 420 -84 370 -125 b 430 -248 352 -222 396 -248 b 432 -279 435 -256 435 -262 b 321 -361 421 -336 357 -361 b 369 -385 320 -368 336 -385 b 557 -205 461 -385 540 -296 b 479 -84 573 -126 534 -84 z "},"ģ":{"ha":1147,"x_min":0,"x_max":0,"o":"m 640 614 l 600 411 l 849 411 b 553 199 826 354 728 199 b 300 545 386 199 262 338 b 672 893 338 754 514 893 b 905 742 777 893 844 831 l 1061 924 b 728 1116 988 1029 862 1114 b 75 545 390 1116 127 881 b 522 -22 23 220 199 -22 b 1122 522 830 -22 1062 197 b 1133 614 1124 536 1130 568 z m 479 -84 b 361 -172 420 -84 370 -125 b 430 -248 352 -222 396 -248 b 432 -279 435 -256 435 -262 b 321 -361 421 -336 357 -361 b 369 -385 320 -368 336 -385 b 557 -205 461 -385 540 -296 b 479 -84 573 -126 534 -84 z "},"Ġ":{"ha":1147,"x_min":0,"x_max":0,"o":"m 729 1204 b 842 1299 781 1204 832 1246 b 766 1394 852 1350 817 1394 b 652 1298 713 1394 662 1350 b 729 1204 642 1247 676 1204 z m 640 614 l 600 411 l 849 411 b 553 199 826 354 728 199 b 300 545 386 199 262 338 b 672 893 338 754 514 893 b 905 742 777 893 844 831 l 1061 924 b 728 1116 988 1029 862 1114 b 75 545 390 1116 127 881 b 522 -22 23 220 199 -22 b 1122 522 830 -22 1062 197 b 1133 614 1124 536 1130 568 z "},"ġ":{"ha":1147,"x_min":0,"x_max":0,"o":"m 729 1204 b 842 1299 781 1204 832 1246 b 766 1394 852 1350 817 1394 b 652 1298 713 1394 662 1350 b 729 1204 642 1247 676 1204 z m 640 614 l 600 411 l 849 411 b 553 199 826 354 728 199 b 300 545 386 199 262 338 b 672 893 338 754 514 893 b 905 742 777 893 844 831 l 1061 924 b 728 1116 988 1029 862 1114 b 75 545 390 1116 127 881 b 522 -22 23 220 199 -22 b 1122 522 830 -22 1062 197 b 1133 614 1124 536 1130 568 z "},"H":{"ha":989,"x_min":0,"x_max":0,"o":"m 801 1093 l 716 656 l 370 656 l 454 1093 l 229 1093 l 16 0 l 242 0 l 327 438 l 673 438 l 589 0 l 814 0 l 1027 1093 z "},"h":{"ha":989,"x_min":0,"x_max":0,"o":"m 801 1093 l 716 656 l 370 656 l 454 1093 l 229 1093 l 16 0 l 242 0 l 327 438 l 673 438 l 589 0 l 814 0 l 1027 1093 z "},"Ħ":{"ha":989,"x_min":0,"x_max":0,"o":"m 1092 919 l 993 919 l 1027 1093 l 801 1093 l 767 919 l 420 919 l 454 1093 l 229 1093 l 195 919 l 97 919 l 67 763 l 164 763 l 16 0 l 242 0 l 327 438 l 673 438 l 589 0 l 814 0 l 962 763 l 1062 763 z m 716 656 l 370 656 l 390 763 l 736 763 z "},"ħ":{"ha":989,"x_min":0,"x_max":0,"o":"m 1092 919 l 993 919 l 1027 1093 l 801 1093 l 767 919 l 420 919 l 454 1093 l 229 1093 l 195 919 l 97 919 l 67 763 l 164 763 l 16 0 l 242 0 l 327 438 l 673 438 l 589 0 l 814 0 l 962 763 l 1062 763 z m 716 656 l 370 656 l 390 763 l 736 763 z "},"I":{"ha":416,"x_min":0,"x_max":0,"o":"m 16 0 l 242 0 l 454 1093 l 229 1093 z "},"Í":{"ha":416,"x_min":0,"x_max":0,"o":"m 356 1183 l 560 1405 l 370 1405 l 201 1183 z m 16 0 l 242 0 l 454 1093 l 229 1093 z "},"í":{"ha":416,"x_min":0,"x_max":0,"o":"m 356 1183 l 560 1405 l 370 1405 l 201 1183 z m 16 0 l 242 0 l 454 1093 l 229 1093 z "},"Î":{"ha":416,"x_min":0,"x_max":0,"o":"m 92 1193 l 273 1193 l 389 1289 l 468 1193 l 630 1193 l 452 1392 l 344 1392 z m 16 0 l 242 0 l 454 1093 l 229 1093 z "},"î":{"ha":416,"x_min":0,"x_max":0,"o":"m 92 1193 l 273 1193 l 389 1289 l 468 1193 l 630 1193 l 452 1392 l 344 1392 z m 16 0 l 242 0 l 454 1093 l 229 1093 z "},"Ï":{"ha":416,"x_min":0,"x_max":0,"o":"m 212 1206 b 309 1287 256 1206 300 1242 b 243 1369 317 1331 287 1369 b 145 1287 198 1369 154 1331 b 212 1206 136 1242 167 1206 z m 515 1206 b 613 1287 560 1206 604 1242 b 547 1369 622 1331 591 1369 b 450 1287 503 1369 458 1331 b 515 1206 441 1242 471 1206 z m 16 0 l 242 0 l 454 1093 l 229 1093 z "},"ï":{"ha":416,"x_min":0,"x_max":0,"o":"m 212 1206 b 309 1287 256 1206 300 1242 b 243 1369 317 1331 287 1369 b 145 1287 198 1369 154 1331 b 212 1206 136 1242 167 1206 z m 515 1206 b 613 1287 560 1206 604 1242 b 547 1369 622 1331 591 1369 b 450 1287 503 1369 458 1331 b 515 1206 441 1242 471 1206 z m 16 0 l 242 0 l 454 1093 l 229 1093 z "},"İ":{"ha":416,"x_min":0,"x_max":0,"o":"m 363 1204 b 477 1299 415 1204 467 1246 b 400 1394 486 1350 452 1394 b 287 1298 348 1394 296 1350 b 363 1204 277 1247 311 1204 z m 16 0 l 242 0 l 454 1093 l 229 1093 z "},"Ì":{"ha":416,"x_min":0,"x_max":0,"o":"m 328 1183 l 484 1183 l 400 1405 l 210 1405 z m 16 0 l 242 0 l 454 1093 l 229 1093 z "},"ì":{"ha":416,"x_min":0,"x_max":0,"o":"m 328 1183 l 484 1183 l 400 1405 l 210 1405 z m 16 0 l 242 0 l 454 1093 l 229 1093 z "},"Ī":{"ha":416,"x_min":0,"x_max":0,"o":"m 170 1226 l 565 1226 l 587 1336 l 192 1336 z m 16 0 l 242 0 l 454 1093 l 229 1093 z "},"ī":{"ha":416,"x_min":0,"x_max":0,"o":"m 170 1226 l 565 1226 l 587 1336 l 192 1336 z m 16 0 l 242 0 l 454 1093 l 229 1093 z "},"Į":{"ha":416,"x_min":0,"x_max":0,"o":"m 151 -221 b 102 -165 106 -221 102 -180 b 242 0 102 -114 146 -70 l 454 1093 l 229 1093 l 16 0 l 94 0 b -53 -217 12 -41 -53 -121 b 139 -376 -53 -316 16 -376 b 252 -362 172 -376 210 -372 l 228 -210 b 151 -221 195 -218 164 -221 z "},"į":{"ha":416,"x_min":0,"x_max":0,"o":"m 151 -221 b 102 -165 106 -221 102 -180 b 242 0 102 -114 146 -70 l 454 1093 l 229 1093 l 16 0 l 94 0 b -53 -217 12 -41 -53 -121 b 139 -376 -53 -316 16 -376 b 252 -362 172 -376 210 -372 l 228 -210 b 151 -221 195 -218 164 -221 z "},"J":{"ha":766,"x_min":0,"x_max":0,"o":"m 172 -24 b 682 414 457 -24 627 124 l 811 1093 l 585 1093 l 458 415 b 216 195 432 278 345 195 b 99 243 164 195 130 211 l -38 64 b 172 -24 11 7 84 -24 z "},"j":{"ha":766,"x_min":0,"x_max":0,"o":"m 172 -24 b 682 414 457 -24 627 124 l 811 1093 l 585 1093 l 458 415 b 216 195 432 278 345 195 b 99 243 164 195 130 211 l -38 64 b 172 -24 11 7 84 -24 z "},"K":{"ha":904,"x_min":0,"x_max":0,"o":"m 997 1093 l 731 1093 l 363 625 l 454 1093 l 229 1093 l 16 0 l 242 0 l 342 515 l 571 0 l 815 0 l 568 550 z "},"k":{"ha":904,"x_min":0,"x_max":0,"o":"m 997 1093 l 731 1093 l 363 625 l 454 1093 l 229 1093 l 16 0 l 242 0 l 342 515 l 571 0 l 815 0 l 568 550 z "},"Ķ":{"ha":904,"x_min":0,"x_max":0,"o":"m 997 1093 l 731 1093 l 363 625 l 454 1093 l 229 1093 l 16 0 l 242 0 l 342 515 l 571 0 l 815 0 l 568 550 z m 357 -84 b 240 -172 299 -84 249 -125 b 309 -248 231 -222 275 -248 b 311 -279 313 -256 314 -262 b 200 -361 300 -336 236 -361 b 248 -385 199 -368 214 -385 b 436 -205 340 -385 418 -296 b 357 -84 452 -126 413 -84 z "},"ķ":{"ha":904,"x_min":0,"x_max":0,"o":"m 997 1093 l 731 1093 l 363 625 l 454 1093 l 229 1093 l 16 0 l 242 0 l 342 515 l 571 0 l 815 0 l 568 550 z m 357 -84 b 240 -172 299 -84 249 -125 b 309 -248 231 -222 275 -248 b 311 -279 313 -256 314 -262 b 200 -361 300 -336 236 -361 b 248 -385 199 -368 214 -385 b 436 -205 340 -385 418 -296 b 357 -84 452 -126 413 -84 z "},"L":{"ha":766,"x_min":0,"x_max":0,"o":"m 286 218 l 455 1093 l 229 1093 l 16 0 l 658 0 l 701 218 z "},"l":{"ha":766,"x_min":0,"x_max":0,"o":"m 286 218 l 455 1093 l 229 1093 l 16 0 l 658 0 l 701 218 z "},"Ĺ":{"ha":766,"x_min":0,"x_max":0,"o":"m 752 1405 l 562 1405 l 393 1183 l 548 1183 z m 455 1093 l 229 1093 l 16 0 l 658 0 l 701 218 l 286 218 z "},"ĺ":{"ha":766,"x_min":0,"x_max":0,"o":"m 752 1405 l 562 1405 l 393 1183 l 548 1183 z m 455 1093 l 229 1093 l 16 0 l 658 0 l 701 218 l 286 218 z "},"Ľ":{"ha":766,"x_min":0,"x_max":0,"o":"m 824 1161 l 654 1161 l 545 842 l 680 842 z m 455 1093 l 229 1093 l 16 0 l 658 0 l 701 218 l 286 218 z "},"ľ":{"ha":766,"x_min":0,"x_max":0,"o":"m 824 1161 l 654 1161 l 545 842 l 680 842 z m 455 1093 l 229 1093 l 16 0 l 658 0 l 701 218 l 286 218 z "},"Ļ":{"ha":766,"x_min":0,"x_max":0,"o":"m 286 218 l 455 1093 l 229 1093 l 16 0 l 658 0 l 701 218 z m 306 -84 b 189 -172 248 -84 197 -125 b 257 -248 179 -222 223 -248 b 259 -279 262 -256 262 -262 b 149 -361 248 -336 184 -361 b 196 -385 147 -368 163 -385 b 385 -205 288 -385 367 -296 b 306 -84 400 -126 361 -84 z "},"ļ":{"ha":766,"x_min":0,"x_max":0,"o":"m 286 218 l 455 1093 l 229 1093 l 16 0 l 658 0 l 701 218 z m 306 -84 b 189 -172 248 -84 197 -125 b 257 -248 179 -222 223 -248 b 259 -279 262 -256 262 -262 b 149 -361 248 -336 184 -361 b 196 -385 147 -368 163 -385 b 385 -205 288 -385 367 -296 b 306 -84 400 -126 361 -84 z "},"Ł":{"ha":766,"x_min":0,"x_max":0,"o":"m 286 218 l 346 532 l 507 633 l 541 806 l 379 704 l 455 1093 l 229 1093 l 121 540 l -7 459 l -40 288 l 87 368 l 16 0 l 658 0 l 701 218 z "},"ł":{"ha":766,"x_min":0,"x_max":0,"o":"m 286 218 l 346 532 l 507 633 l 541 806 l 379 704 l 455 1093 l 229 1093 l 121 540 l -7 459 l -40 288 l 87 368 l 16 0 l 658 0 l 701 218 z "},"M":{"ha":1220,"x_min":0,"x_max":0,"o":"m 1238 1120 l 587 403 l 258 1120 l 233 1120 l 16 0 l 242 0 l 331 458 l 527 18 l 528 18 l 909 460 l 819 0 l 1046 0 l 1263 1120 z "},"m":{"ha":1220,"x_min":0,"x_max":0,"o":"m 1238 1120 l 587 403 l 258 1120 l 233 1120 l 16 0 l 242 0 l 331 458 l 527 18 l 528 18 l 909 460 l 819 0 l 1046 0 l 1263 1120 z "},"N":{"ha":1034,"x_min":0,"x_max":0,"o":"m 847 1096 l 728 487 l 253 1114 l 233 1114 l 16 -1 l 241 -1 l 359 608 l 836 -20 l 855 -20 l 1072 1096 z "},"n":{"ha":1034,"x_min":0,"x_max":0,"o":"m 847 1096 l 728 487 l 253 1114 l 233 1114 l 16 -1 l 241 -1 l 359 608 l 836 -20 l 855 -20 l 1072 1096 z "},"Ń":{"ha":1034,"x_min":0,"x_max":0,"o":"m 869 1405 l 679 1405 l 509 1183 l 665 1183 z m 847 1096 l 728 487 l 253 1114 l 233 1114 l 16 -1 l 241 -1 l 359 608 l 836 -20 l 855 -20 l 1072 1096 z "},"ń":{"ha":1034,"x_min":0,"x_max":0,"o":"m 869 1405 l 679 1405 l 509 1183 l 665 1183 z m 847 1096 l 728 487 l 253 1114 l 233 1114 l 16 -1 l 241 -1 l 359 608 l 836 -20 l 855 -20 l 1072 1096 z "},"Ň":{"ha":1034,"x_min":0,"x_max":0,"o":"m 726 1193 l 977 1392 l 796 1392 l 681 1295 l 602 1392 l 439 1392 l 618 1193 z m 847 1096 l 728 487 l 253 1114 l 233 1114 l 16 -1 l 241 -1 l 359 608 l 836 -20 l 855 -20 l 1072 1096 z "},"ň":{"ha":1034,"x_min":0,"x_max":0,"o":"m 726 1193 l 977 1392 l 796 1392 l 681 1295 l 602 1392 l 439 1392 l 618 1193 z m 847 1096 l 728 487 l 253 1114 l 233 1114 l 16 -1 l 241 -1 l 359 608 l 836 -20 l 855 -20 l 1072 1096 z "},"Ņ":{"ha":1034,"x_min":0,"x_max":0,"o":"m 847 1096 l 728 487 l 253 1114 l 233 1114 l 16 -1 l 241 -1 l 359 608 l 836 -20 l 855 -20 l 1072 1096 z m 422 -84 b 304 -172 363 -84 313 -125 b 373 -248 295 -222 339 -248 b 375 -279 378 -256 378 -262 b 264 -361 364 -336 300 -361 b 312 -385 263 -368 279 -385 b 500 -205 404 -385 483 -296 b 422 -84 516 -126 477 -84 z "},"ņ":{"ha":1034,"x_min":0,"x_max":0,"o":"m 847 1096 l 728 487 l 253 1114 l 233 1114 l 16 -1 l 241 -1 l 359 608 l 836 -20 l 855 -20 l 1072 1096 z m 422 -84 b 304 -172 363 -84 313 -125 b 373 -248 295 -222 339 -248 b 375 -279 378 -256 378 -262 b 264 -361 364 -336 300 -361 b 312 -385 263 -368 279 -385 b 500 -205 404 -385 483 -296 b 422 -84 516 -126 477 -84 z "},"Ŋ":{"ha":1034,"x_min":0,"x_max":0,"o":"m 847 1096 l 728 487 l 253 1114 l 233 1114 l 16 -1 l 241 -1 l 359 608 l 681 183 l 637 -47 b 486 -234 621 -136 571 -192 l 611 -345 b 851 -43 741 -269 829 -155 l 855 -20 l 1072 1096 z "},"ŋ":{"ha":1034,"x_min":0,"x_max":0,"o":"m 847 1096 l 728 487 l 253 1114 l 233 1114 l 16 -1 l 241 -1 l 359 608 l 681 183 l 637 -47 b 486 -234 621 -136 571 -192 l 611 -345 b 851 -43 741 -269 829 -155 l 855 -20 l 1072 1096 z "},"Ñ":{"ha":1034,"x_min":0,"x_max":0,"o":"m 591 1286 b 781 1200 659 1286 678 1200 b 981 1358 829 1200 924 1215 l 883 1398 b 789 1312 863 1349 831 1312 b 600 1398 722 1312 703 1398 b 400 1240 551 1398 457 1383 l 498 1200 b 591 1286 518 1249 549 1286 z m 847 1096 l 728 487 l 253 1114 l 233 1114 l 16 -1 l 241 -1 l 359 608 l 836 -20 l 855 -20 l 1072 1096 z "},"ñ":{"ha":1034,"x_min":0,"x_max":0,"o":"m 591 1286 b 781 1200 659 1286 678 1200 b 981 1358 829 1200 924 1215 l 883 1398 b 789 1312 863 1349 831 1312 b 600 1398 722 1312 703 1398 b 400 1240 551 1398 457 1383 l 498 1200 b 591 1286 518 1249 549 1286 z m 847 1096 l 728 487 l 253 1114 l 233 1114 l 16 -1 l 241 -1 l 359 608 l 836 -20 l 855 -20 l 1072 1096 z "},"O":{"ha":1147,"x_min":0,"x_max":0,"o":"m 496 -24 b 1124 536 803 -40 1074 197 b 702 1109 1171 856 996 1095 b 75 545 394 1125 123 885 b 496 -24 30 225 206 -9 z m 536 196 b 301 544 370 199 268 349 b 661 890 335 745 496 894 b 898 540 824 888 932 739 b 536 196 864 345 707 192 z "},"o":{"ha":1147,"x_min":0,"x_max":0,"o":"m 496 -24 b 1124 536 803 -40 1074 197 b 702 1109 1171 856 996 1095 b 75 545 394 1125 123 885 b 496 -24 30 225 206 -9 z m 536 196 b 301 544 370 199 268 349 b 661 890 335 745 496 894 b 898 540 824 888 932 739 b 536 196 864 345 707 192 z "},"Ó":{"ha":1147,"x_min":0,"x_max":0,"o":"m 722 1183 l 926 1405 l 736 1405 l 566 1183 z m 496 -24 b 1124 536 803 -40 1074 197 b 702 1109 1171 856 996 1095 b 75 545 394 1125 123 885 b 496 -24 30 225 206 -9 z m 536 196 b 301 544 370 199 268 349 b 661 890 335 745 496 894 b 898 540 824 888 932 739 b 536 196 864 345 707 192 z "},"ó":{"ha":1147,"x_min":0,"x_max":0,"o":"m 722 1183 l 926 1405 l 736 1405 l 566 1183 z m 496 -24 b 1124 536 803 -40 1074 197 b 702 1109 1171 856 996 1095 b 75 545 394 1125 123 885 b 496 -24 30 225 206 -9 z m 536 196 b 301 544 370 199 268 349 b 661 890 335 745 496 894 b 898 540 824 888 932 739 b 536 196 864 345 707 192 z "},"Ô":{"ha":1147,"x_min":0,"x_max":0,"o":"m 458 1193 l 639 1193 l 754 1289 l 833 1193 l 996 1193 l 817 1392 l 709 1392 z m 496 -24 b 1124 536 803 -40 1074 197 b 702 1109 1171 856 996 1095 b 75 545 394 1125 123 885 b 496 -24 30 225 206 -9 z m 536 196 b 301 544 370 199 268 349 b 661 890 335 745 496 894 b 898 540 824 888 932 739 b 536 196 864 345 707 192 z "},"ô":{"ha":1147,"x_min":0,"x_max":0,"o":"m 458 1193 l 639 1193 l 754 1289 l 833 1193 l 996 1193 l 817 1392 l 709 1392 z m 496 -24 b 1124 536 803 -40 1074 197 b 702 1109 1171 856 996 1095 b 75 545 394 1125 123 885 b 496 -24 30 225 206 -9 z m 536 196 b 301 544 370 199 268 349 b 661 890 335 745 496 894 b 898 540 824 888 932 739 b 536 196 864 345 707 192 z "},"Ö":{"ha":1147,"x_min":0,"x_max":0,"o":"m 577 1206 b 674 1287 621 1206 665 1242 b 608 1369 683 1331 652 1369 b 511 1287 564 1369 519 1331 b 577 1206 502 1242 532 1206 z m 881 1206 b 979 1287 926 1206 970 1242 b 912 1369 987 1331 957 1369 b 815 1287 868 1369 824 1331 b 881 1206 806 1242 836 1206 z m 496 -24 b 1124 536 803 -40 1074 197 b 702 1109 1171 856 996 1095 b 75 545 394 1125 123 885 b 496 -24 30 225 206 -9 z m 536 196 b 301 544 370 199 268 349 b 661 890 335 745 496 894 b 898 540 824 888 932 739 b 536 196 864 345 707 192 z "},"ö":{"ha":1147,"x_min":0,"x_max":0,"o":"m 577 1206 b 674 1287 621 1206 665 1242 b 608 1369 683 1331 652 1369 b 511 1287 564 1369 519 1331 b 577 1206 502 1242 532 1206 z m 881 1206 b 979 1287 926 1206 970 1242 b 912 1369 987 1331 957 1369 b 815 1287 868 1369 824 1331 b 881 1206 806 1242 836 1206 z m 496 -24 b 1124 536 803 -40 1074 197 b 702 1109 1171 856 996 1095 b 75 545 394 1125 123 885 b 496 -24 30 225 206 -9 z m 536 196 b 301 544 370 199 268 349 b 661 890 335 745 496 894 b 898 540 824 888 932 739 b 536 196 864 345 707 192 z "},"Ò":{"ha":1147,"x_min":0,"x_max":0,"o":"m 694 1183 l 849 1183 l 766 1405 l 576 1405 z m 496 -24 b 1124 536 803 -40 1074 197 b 702 1109 1171 856 996 1095 b 75 545 394 1125 123 885 b 496 -24 30 225 206 -9 z m 536 196 b 301 544 370 199 268 349 b 661 890 335 745 496 894 b 898 540 824 888 932 739 b 536 196 864 345 707 192 z "},"ò":{"ha":1147,"x_min":0,"x_max":0,"o":"m 694 1183 l 849 1183 l 766 1405 l 576 1405 z m 496 -24 b 1124 536 803 -40 1074 197 b 702 1109 1171 856 996 1095 b 75 545 394 1125 123 885 b 496 -24 30 225 206 -9 z m 536 196 b 301 544 370 199 268 349 b 661 890 335 745 496 894 b 898 540 824 888 932 739 b 536 196 864 345 707 192 z "},"Ő":{"ha":1147,"x_min":0,"x_max":0,"o":"m 475 1183 l 610 1183 l 787 1405 l 618 1405 z m 705 1183 l 847 1183 l 1072 1405 l 889 1405 z m 496 -24 b 1124 536 803 -40 1074 197 b 702 1109 1171 856 996 1095 b 75 545 394 1125 123 885 b 496 -24 30 225 206 -9 z m 536 196 b 301 544 370 199 268 349 b 661 890 335 745 496 894 b 898 540 824 888 932 739 b 536 196 864 345 707 192 z "},"ő":{"ha":1147,"x_min":0,"x_max":0,"o":"m 475 1183 l 610 1183 l 787 1405 l 618 1405 z m 705 1183 l 847 1183 l 1072 1405 l 889 1405 z m 496 -24 b 1124 536 803 -40 1074 197 b 702 1109 1171 856 996 1095 b 75 545 394 1125 123 885 b 496 -24 30 225 206 -9 z m 536 196 b 301 544 370 199 268 349 b 661 890 335 745 496 894 b 898 540 824 888 932 739 b 536 196 864 345 707 192 z "},"Ō":{"ha":1147,"x_min":0,"x_max":0,"o":"m 536 1226 l 930 1226 l 952 1336 l 557 1336 z m 496 -24 b 1124 536 803 -40 1074 197 b 702 1109 1171 856 996 1095 b 75 545 394 1125 123 885 b 496 -24 30 225 206 -9 z m 536 196 b 301 544 370 199 268 349 b 661 890 335 745 496 894 b 898 540 824 888 932 739 b 536 196 864 345 707 192 z "},"ō":{"ha":1147,"x_min":0,"x_max":0,"o":"m 536 1226 l 930 1226 l 952 1336 l 557 1336 z m 496 -24 b 1124 536 803 -40 1074 197 b 702 1109 1171 856 996 1095 b 75 545 394 1125 123 885 b 496 -24 30 225 206 -9 z m 536 196 b 301 544 370 199 268 349 b 661 890 335 745 496 894 b 898 540 824 888 932 739 b 536 196 864 345 707 192 z "},"Ø":{"ha":1147,"x_min":0,"x_max":0,"o":"m 1213 1134 l 1028 1134 l 940 1034 b 702 1109 874 1078 794 1105 b 75 545 394 1125 123 885 b 157 150 53 387 85 250 l -12 -41 l 174 -41 l 257 53 b 496 -24 323 7 404 -20 b 1124 536 803 -40 1074 197 b 1040 938 1147 696 1115 836 z m 301 544 b 661 890 335 745 496 894 b 783 857 707 890 747 878 l 323 336 b 301 544 296 394 288 465 z m 898 540 b 536 196 864 345 707 192 b 414 231 490 197 449 209 l 875 751 b 898 540 903 694 912 621 z "},"ø":{"ha":1147,"x_min":0,"x_max":0,"o":"m 1213 1134 l 1028 1134 l 940 1034 b 702 1109 874 1078 794 1105 b 75 545 394 1125 123 885 b 157 150 53 387 85 250 l -12 -41 l 174 -41 l 257 53 b 496 -24 323 7 404 -20 b 1124 536 803 -40 1074 197 b 1040 938 1147 696 1115 836 z m 301 544 b 661 890 335 745 496 894 b 783 857 707 890 747 878 l 323 336 b 301 544 296 394 288 465 z m 898 540 b 536 196 864 345 707 192 b 414 231 490 197 449 209 l 875 751 b 898 540 903 694 912 621 z "},"Õ":{"ha":1147,"x_min":0,"x_max":0,"o":"m 555 1200 b 648 1286 575 1249 606 1286 b 838 1200 716 1286 735 1200 b 1038 1358 886 1200 981 1215 l 940 1398 b 846 1312 920 1349 888 1312 b 656 1398 779 1312 760 1398 b 457 1240 608 1398 514 1383 z m 496 -24 b 1124 536 803 -40 1074 197 b 702 1109 1171 856 996 1095 b 75 545 394 1125 123 885 b 496 -24 30 225 206 -9 z m 536 196 b 301 544 370 199 268 349 b 661 890 335 745 496 894 b 898 540 824 888 932 739 b 536 196 864 345 707 192 z "},"õ":{"ha":1147,"x_min":0,"x_max":0,"o":"m 555 1200 b 648 1286 575 1249 606 1286 b 838 1200 716 1286 735 1200 b 1038 1358 886 1200 981 1215 l 940 1398 b 846 1312 920 1349 888 1312 b 656 1398 779 1312 760 1398 b 457 1240 608 1398 514 1383 z m 496 -24 b 1124 536 803 -40 1074 197 b 702 1109 1171 856 996 1095 b 75 545 394 1125 123 885 b 496 -24 30 225 206 -9 z m 536 196 b 301 544 370 199 268 349 b 661 890 335 745 496 894 b 898 540 824 888 932 739 b 536 196 864 345 707 192 z "},"Œ":{"ha":1617,"x_min":0,"x_max":0,"o":"m 1642 877 l 1684 1093 l 1051 1093 l 1023 950 b 702 1109 956 1047 844 1103 b 75 545 390 1123 123 885 b 496 -24 30 225 206 -9 b 859 106 637 -32 761 18 l 839 0 l 1472 0 l 1514 218 l 1107 218 l 1151 444 l 1497 444 l 1539 663 l 1194 663 l 1235 877 z m 536 196 b 301 544 370 200 268 349 b 661 890 336 745 496 894 b 898 540 824 887 932 739 b 536 196 864 344 707 192 z "},"œ":{"ha":1617,"x_min":0,"x_max":0,"o":"m 1642 877 l 1684 1093 l 1051 1093 l 1023 950 b 702 1109 956 1047 844 1103 b 75 545 390 1123 123 885 b 496 -24 30 225 206 -9 b 859 106 637 -32 761 18 l 839 0 l 1472 0 l 1514 218 l 1107 218 l 1151 444 l 1497 444 l 1539 663 l 1194 663 l 1235 877 z m 536 196 b 301 544 370 200 268 349 b 661 890 336 745 496 894 b 898 540 824 887 932 739 b 536 196 864 344 707 192 z "},"P":{"ha":862,"x_min":0,"x_max":0,"o":"m 16 0 l 242 0 l 311 355 l 433 355 b 893 718 699 355 863 500 b 576 1093 926 953 777 1093 l 229 1093 z m 475 572 l 353 573 l 412 876 l 534 876 b 677 719 624 876 690 817 b 475 572 665 630 597 572 z "},"p":{"ha":862,"x_min":0,"x_max":0,"o":"m 16 0 l 242 0 l 311 355 l 433 355 b 893 718 699 355 863 500 b 576 1093 926 953 777 1093 l 229 1093 z m 475 572 l 353 573 l 412 876 l 534 876 b 677 719 624 876 690 817 b 475 572 665 630 597 572 z "},"Þ":{"ha":878,"x_min":0,"x_max":0,"o":"m 16 0 l 242 0 l 280 195 l 424 195 b 859 553 670 195 830 364 b 563 912 896 801 712 912 l 419 912 l 454 1093 l 229 1093 z m 319 404 l 380 704 l 507 704 b 635 553 584 704 648 649 b 446 404 622 463 549 404 z "},"þ":{"ha":878,"x_min":0,"x_max":0,"o":"m 16 0 l 242 0 l 280 195 l 424 195 b 859 553 670 195 830 364 b 563 912 896 801 712 912 l 419 912 l 454 1093 l 229 1093 z m 319 404 l 380 704 l 507 704 b 635 553 584 704 648 649 b 446 404 622 463 549 404 z "},"Q":{"ha":1147,"x_min":0,"x_max":0,"o":"m 702 1109 b 75 545 394 1125 123 885 b 496 -24 30 225 206 -9 b 783 37 598 -30 696 -7 b 1026 -52 841 -9 917 -44 l 1085 163 b 968 185 1039 165 1001 174 b 1124 536 1048 279 1104 399 b 702 1109 1171 856 996 1095 z m 536 196 b 301 544 370 199 268 349 b 661 890 335 745 496 894 b 898 540 824 888 932 739 b 798 324 884 458 847 382 b 485 545 725 422 671 530 l 437 356 b 635 211 530 349 581 286 b 536 196 604 201 570 195 z "},"q":{"ha":1147,"x_min":0,"x_max":0,"o":"m 702 1109 b 75 545 394 1125 123 885 b 496 -24 30 225 206 -9 b 783 37 598 -30 696 -7 b 1026 -52 841 -9 917 -44 l 1085 163 b 968 185 1039 165 1001 174 b 1124 536 1048 279 1104 399 b 702 1109 1171 856 996 1095 z m 536 196 b 301 544 370 199 268 349 b 661 890 335 745 496 894 b 898 540 824 888 932 739 b 798 324 884 458 847 382 b 485 545 725 422 671 530 l 437 356 b 635 211 530 349 581 286 b 536 196 604 201 570 195 z "},"R":{"ha":912,"x_min":0,"x_max":0,"o":"m 860 739 b 551 1093 897 972 723 1093 l 229 1093 l 17 0 l 243 0 l 342 511 l 573 0 l 823 0 l 609 435 b 860 739 743 476 837 593 z m 637 737 b 460 600 626 657 554 600 l 359 601 l 412 876 l 513 876 b 637 737 591 876 649 819 z "},"r":{"ha":912,"x_min":0,"x_max":0,"o":"m 860 739 b 551 1093 897 972 723 1093 l 229 1093 l 17 0 l 243 0 l 342 511 l 573 0 l 823 0 l 609 435 b 860 739 743 476 837 593 z m 637 737 b 460 600 626 657 554 600 l 359 601 l 412 876 l 513 876 b 637 737 591 876 649 819 z "},"Ŕ":{"ha":912,"x_min":0,"x_max":0,"o":"m 808 1405 l 618 1405 l 449 1183 l 604 1183 z m 860 739 b 551 1093 897 972 723 1093 l 229 1093 l 17 0 l 243 0 l 342 511 l 573 0 l 823 0 l 609 435 b 860 739 743 476 837 593 z m 637 737 b 460 600 626 657 554 600 l 359 601 l 412 876 l 513 876 b 637 737 591 876 649 819 z "},"ŕ":{"ha":912,"x_min":0,"x_max":0,"o":"m 808 1405 l 618 1405 l 449 1183 l 604 1183 z m 860 739 b 551 1093 897 972 723 1093 l 229 1093 l 17 0 l 243 0 l 342 511 l 573 0 l 823 0 l 609 435 b 860 739 743 476 837 593 z m 637 737 b 460 600 626 657 554 600 l 359 601 l 412 876 l 513 876 b 637 737 591 876 649 819 z "},"Ř":{"ha":912,"x_min":0,"x_max":0,"o":"m 665 1193 l 917 1392 l 736 1392 l 621 1295 l 541 1392 l 379 1392 l 557 1193 z m 551 1093 l 229 1093 l 17 0 l 243 0 l 342 511 l 573 0 l 823 0 l 609 435 b 860 739 743 476 837 593 b 551 1093 897 972 723 1093 z m 637 737 b 460 600 626 657 554 600 l 359 601 l 412 876 l 513 876 b 637 737 591 876 649 819 z "},"ř":{"ha":912,"x_min":0,"x_max":0,"o":"m 665 1193 l 917 1392 l 736 1392 l 621 1295 l 541 1392 l 379 1392 l 557 1193 z m 551 1093 l 229 1093 l 17 0 l 243 0 l 342 511 l 573 0 l 823 0 l 609 435 b 860 739 743 476 837 593 b 551 1093 897 972 723 1093 z m 637 737 b 460 600 626 657 554 600 l 359 601 l 412 876 l 513 876 b 637 737 591 876 649 819 z "},"Ŗ":{"ha":912,"x_min":0,"x_max":0,"o":"m 860 739 b 551 1093 897 972 723 1093 l 229 1093 l 17 0 l 243 0 l 342 511 l 573 0 l 823 0 l 609 435 b 860 739 743 476 837 593 z m 637 737 b 460 600 626 657 554 600 l 359 601 l 412 876 l 513 876 b 637 737 591 876 649 819 z m 361 -84 b 244 -172 303 -84 253 -125 b 313 -248 235 -222 279 -248 b 315 -279 317 -256 318 -262 b 204 -361 304 -336 240 -361 b 252 -385 203 -368 218 -385 b 440 -205 344 -385 422 -296 b 361 -84 456 -126 417 -84 z "},"ŗ":{"ha":912,"x_min":0,"x_max":0,"o":"m 860 739 b 551 1093 897 972 723 1093 l 229 1093 l 17 0 l 243 0 l 342 511 l 573 0 l 823 0 l 609 435 b 860 739 743 476 837 593 z m 637 737 b 460 600 626 657 554 600 l 359 601 l 412 876 l 513 876 b 637 737 591 876 649 819 z m 361 -84 b 244 -172 303 -84 253 -125 b 313 -248 235 -222 279 -248 b 315 -279 317 -256 318 -262 b 204 -361 304 -336 240 -361 b 252 -385 203 -368 218 -385 b 440 -205 344 -385 422 -296 b 361 -84 456 -126 417 -84 z "},"S":{"ha":829,"x_min":0,"x_max":0,"o":"m 361 -22 b 767 286 579 -22 733 109 b 564 633 794 426 736 530 b 404 798 477 686 392 721 b 530 901 412 852 465 901 b 673 794 593 901 655 863 l 851 916 b 561 1116 823 1029 707 1116 b 188 844 378 1116 220 1006 b 366 503 151 659 260 568 b 544 300 442 455 559 391 b 391 199 532 233 454 199 b 180 339 310 199 232 245 l 1 217 b 361 -22 50 79 180 -22 z "},"s":{"ha":829,"x_min":0,"x_max":0,"o":"m 361 -22 b 767 286 579 -22 733 109 b 564 633 794 426 736 530 b 404 798 477 686 392 721 b 530 901 412 852 465 901 b 673 794 593 901 655 863 l 851 916 b 561 1116 823 1029 707 1116 b 188 844 378 1116 220 1006 b 366 503 151 659 260 568 b 544 300 442 455 559 391 b 391 199 532 233 454 199 b 180 339 310 199 232 245 l 1 217 b 361 -22 50 79 180 -22 z "},"Ś":{"ha":829,"x_min":0,"x_max":0,"o":"m 572 1183 l 776 1405 l 586 1405 l 416 1183 z m 361 -22 b 767 286 579 -22 733 109 b 564 633 794 426 736 530 b 404 798 477 686 392 721 b 530 901 412 852 465 901 b 673 794 593 901 655 863 l 851 916 b 561 1116 823 1029 707 1116 b 188 844 378 1116 220 1006 b 366 503 151 659 260 568 b 544 300 442 455 559 391 b 391 199 532 233 454 199 b 180 339 310 199 232 245 l 1 217 b 361 -22 50 79 180 -22 z "},"ś":{"ha":829,"x_min":0,"x_max":0,"o":"m 572 1183 l 776 1405 l 586 1405 l 416 1183 z m 361 -22 b 767 286 579 -22 733 109 b 564 633 794 426 736 530 b 404 798 477 686 392 721 b 530 901 412 852 465 901 b 673 794 593 901 655 863 l 851 916 b 561 1116 823 1029 707 1116 b 188 844 378 1116 220 1006 b 366 503 151 659 260 568 b 544 300 442 455 559 391 b 391 199 532 233 454 199 b 180 339 310 199 232 245 l 1 217 b 361 -22 50 79 180 -22 z "},"Š":{"ha":829,"x_min":0,"x_max":0,"o":"m 884 1392 l 703 1392 l 588 1295 l 509 1392 l 347 1392 l 525 1193 l 633 1193 z m 361 -22 b 767 286 579 -22 733 109 b 564 633 794 426 736 530 b 404 798 477 686 392 721 b 530 901 412 852 465 901 b 673 794 593 901 655 863 l 851 916 b 561 1116 823 1029 707 1116 b 188 844 378 1116 220 1006 b 366 503 151 659 260 568 b 544 300 442 455 559 391 b 391 199 532 233 454 199 b 180 339 310 199 232 245 l 1 217 b 361 -22 50 79 180 -22 z "},"š":{"ha":829,"x_min":0,"x_max":0,"o":"m 884 1392 l 703 1392 l 588 1295 l 509 1392 l 347 1392 l 525 1193 l 633 1193 z m 361 -22 b 767 286 579 -22 733 109 b 564 633 794 426 736 530 b 404 798 477 686 392 721 b 530 901 412 852 465 901 b 673 794 593 901 655 863 l 851 916 b 561 1116 823 1029 707 1116 b 188 844 378 1116 220 1006 b 366 503 151 659 260 568 b 544 300 442 455 559 391 b 391 199 532 233 454 199 b 180 339 310 199 232 245 l 1 217 b 361 -22 50 79 180 -22 z "},"Ş":{"ha":829,"x_min":0,"x_max":0,"o":"m 564 633 b 404 798 477 686 392 721 b 530 901 412 852 465 901 b 673 794 593 901 655 863 l 851 916 b 561 1116 823 1029 707 1116 b 188 844 378 1116 220 1006 b 366 503 151 659 260 568 b 544 300 442 455 559 391 b 391 199 532 233 454 199 b 180 339 310 199 232 245 l 1 217 b 289 -16 43 98 146 7 l 198 -111 l 218 -146 b 253 -142 232 -144 243 -142 b 296 -178 290 -142 299 -160 b 106 -240 289 -215 232 -240 l 135 -373 b 446 -172 290 -373 425 -278 b 376 -64 458 -109 425 -64 b 347 -66 365 -64 358 -64 l 391 -21 b 767 286 593 -9 734 117 b 564 633 794 426 736 530 z "},"ş":{"ha":829,"x_min":0,"x_max":0,"o":"m 564 633 b 404 798 477 686 392 721 b 530 901 412 852 465 901 b 673 794 593 901 655 863 l 851 916 b 561 1116 823 1029 707 1116 b 188 844 378 1116 220 1006 b 366 503 151 659 260 568 b 544 300 442 455 559 391 b 391 199 532 233 454 199 b 180 339 310 199 232 245 l 1 217 b 289 -16 43 98 146 7 l 198 -111 l 218 -146 b 253 -142 232 -144 243 -142 b 296 -178 290 -142 299 -160 b 106 -240 289 -215 232 -240 l 135 -373 b 446 -172 290 -373 425 -278 b 376 -64 458 -109 425 -64 b 347 -66 365 -64 358 -64 l 391 -21 b 767 286 593 -9 734 117 b 564 633 794 426 736 530 z "},"Ș":{"ha":829,"x_min":0,"x_max":0,"o":"m 361 -22 b 767 286 579 -22 733 109 b 564 633 794 426 736 530 b 404 798 477 686 392 721 b 530 901 412 852 465 901 b 673 794 593 901 655 863 l 851 916 b 561 1116 823 1029 707 1116 b 188 844 378 1116 220 1006 b 366 503 151 659 260 568 b 544 300 442 455 559 391 b 391 199 532 233 454 199 b 180 339 310 199 232 245 l 1 217 b 361 -22 50 79 180 -22 z m 219 -385 b 408 -205 311 -385 390 -296 b 329 -84 423 -126 385 -84 b 212 -172 271 -84 220 -125 b 280 -248 202 -222 246 -248 b 282 -279 285 -256 286 -262 b 172 -361 271 -336 208 -361 b 219 -385 170 -368 186 -385 z "},"ș":{"ha":829,"x_min":0,"x_max":0,"o":"m 361 -22 b 767 286 579 -22 733 109 b 564 633 794 426 736 530 b 404 798 477 686 392 721 b 530 901 412 852 465 901 b 673 794 593 901 655 863 l 851 916 b 561 1116 823 1029 707 1116 b 188 844 378 1116 220 1006 b 366 503 151 659 260 568 b 544 300 442 455 559 391 b 391 199 532 233 454 199 b 180 339 310 199 232 245 l 1 217 b 361 -22 50 79 180 -22 z m 219 -385 b 408 -205 311 -385 390 -296 b 329 -84 423 -126 385 -84 b 212 -172 271 -84 220 -125 b 280 -248 202 -222 246 -248 b 282 -279 285 -256 286 -262 b 172 -361 271 -336 208 -361 b 219 -385 170 -368 186 -385 z "},"ß":{"ha":1198,"x_min":0,"x_max":0,"o":"m 955 671 b 856 715 918 693 885 707 l 1093 978 b 681 1114 985 1059 867 1114 b 156 720 403 1114 209 993 l 16 0 l 242 0 l 382 720 b 624 911 408 852 489 911 b 772 882 682 911 736 901 l 559 637 b 785 531 602 623 718 572 b 930 307 911 455 945 377 b 782 199 916 240 859 199 b 565 331 688 199 595 260 l 406 195 b 746 -22 456 60 589 -22 b 1151 317 944 -22 1122 110 b 955 671 1174 484 1084 596 z "},"ẞ":{"ha":1198,"x_min":0,"x_max":0,"o":"m 955 671 b 856 715 918 693 885 707 l 1093 978 b 681 1114 985 1059 867 1114 b 156 720 403 1114 209 993 l 16 0 l 242 0 l 382 720 b 624 911 408 852 489 911 b 772 882 682 911 736 901 l 559 637 b 785 531 602 623 718 572 b 930 307 911 455 945 377 b 782 199 916 240 859 199 b 565 331 688 199 595 260 l 406 195 b 746 -22 456 60 589 -22 b 1151 317 944 -22 1122 110 b 955 671 1174 484 1084 596 z "},"Ə":{"ha":1157,"x_min":0,"x_max":0,"o":"m 521 -8 b 1135 545 861 -8 1093 241 b 708 1101 1181 876 978 1101 b 372 1013 617 1101 477 1076 l 456 828 b 657 880 516 865 600 880 b 920 656 804 880 899 785 l 106 656 b 75 547 96 629 83 590 b 521 -8 29 304 140 -8 z m 553 213 b 288 435 418 213 311 303 l 877 435 b 553 213 808 300 685 213 z "},"ə":{"ha":1157,"x_min":0,"x_max":0,"o":"m 521 -8 b 1135 545 861 -8 1093 241 b 708 1101 1181 876 978 1101 b 372 1013 617 1101 477 1076 l 456 828 b 657 880 516 865 600 880 b 920 656 804 880 899 785 l 106 656 b 75 547 96 629 83 590 b 521 -8 29 304 140 -8 z m 553 213 b 288 435 418 213 311 303 l 877 435 b 553 213 808 300 685 213 z "},"T":{"ha":785,"x_min":0,"x_max":0,"o":"m 890 1093 l 162 1093 l 120 876 l 371 876 l 201 0 l 427 0 l 597 876 l 848 876 z "},"t":{"ha":785,"x_min":0,"x_max":0,"o":"m 890 1093 l 162 1093 l 120 876 l 371 876 l 201 0 l 427 0 l 597 876 l 848 876 z "},"Ŧ":{"ha":785,"x_min":0,"x_max":0,"o":"m 848 876 l 890 1093 l 162 1093 l 120 876 l 371 876 l 322 625 l 168 625 l 138 469 l 292 469 l 201 0 l 427 0 l 518 469 l 673 469 l 703 625 l 549 625 l 597 876 z "},"ŧ":{"ha":785,"x_min":0,"x_max":0,"o":"m 848 876 l 890 1093 l 162 1093 l 120 876 l 371 876 l 322 625 l 168 625 l 138 469 l 292 469 l 201 0 l 427 0 l 518 469 l 673 469 l 703 625 l 549 625 l 597 876 z "},"Ť":{"ha":785,"x_min":0,"x_max":0,"o":"m 602 1193 l 853 1392 l 672 1392 l 557 1295 l 477 1392 l 315 1392 l 494 1193 z m 890 1093 l 162 1093 l 120 876 l 371 876 l 201 0 l 427 0 l 597 876 l 848 876 z "},"ť":{"ha":785,"x_min":0,"x_max":0,"o":"m 602 1193 l 853 1392 l 672 1392 l 557 1295 l 477 1392 l 315 1392 l 494 1193 z m 890 1093 l 162 1093 l 120 876 l 371 876 l 201 0 l 427 0 l 597 876 l 848 876 z "},"Ţ":{"ha":785,"x_min":0,"x_max":0,"o":"m 890 1093 l 162 1093 l 120 876 l 371 876 l 201 0 l 273 0 l 167 -111 l 187 -146 b 222 -142 201 -144 212 -142 b 264 -178 258 -142 268 -160 b 75 -240 258 -215 201 -240 l 104 -373 b 415 -172 258 -373 394 -278 b 345 -64 427 -109 394 -64 b 315 -66 334 -64 327 -64 l 380 0 l 427 0 l 597 876 l 848 876 z "},"ţ":{"ha":785,"x_min":0,"x_max":0,"o":"m 890 1093 l 162 1093 l 120 876 l 371 876 l 201 0 l 273 0 l 167 -111 l 187 -146 b 222 -142 201 -144 212 -142 b 264 -178 258 -142 268 -160 b 75 -240 258 -215 201 -240 l 104 -373 b 415 -172 258 -373 394 -278 b 345 -64 427 -109 394 -64 b 315 -66 334 -64 327 -64 l 380 0 l 427 0 l 597 876 l 848 876 z "},"Ț":{"ha":785,"x_min":0,"x_max":0,"o":"m 890 1093 l 162 1093 l 120 876 l 371 876 l 201 0 l 427 0 l 597 876 l 848 876 z m 298 -84 b 180 -172 239 -84 189 -125 b 249 -248 171 -222 215 -248 b 251 -279 254 -256 254 -262 b 140 -361 240 -336 176 -361 b 188 -385 139 -368 155 -385 b 376 -205 280 -385 359 -296 b 298 -84 392 -126 353 -84 z "},"ț":{"ha":785,"x_min":0,"x_max":0,"o":"m 890 1093 l 162 1093 l 120 876 l 371 876 l 201 0 l 427 0 l 597 876 l 848 876 z m 298 -84 b 180 -172 239 -84 189 -125 b 249 -248 171 -222 215 -248 b 251 -279 254 -256 254 -262 b 140 -361 240 -336 176 -361 b 188 -385 139 -368 155 -385 b 376 -205 280 -385 359 -296 b 298 -84 392 -126 353 -84 z "},"U":{"ha":981,"x_min":0,"x_max":0,"o":"m 426 -24 b 899 425 655 -24 843 138 l 1028 1093 l 802 1093 l 673 425 b 461 199 645 281 565 199 b 315 425 353 199 290 292 l 445 1093 l 219 1093 l 89 425 b 426 -24 39 169 181 -24 z "},"u":{"ha":981,"x_min":0,"x_max":0,"o":"m 426 -24 b 899 425 655 -24 843 138 l 1028 1093 l 802 1093 l 673 425 b 461 199 645 281 565 199 b 315 425 353 199 290 292 l 445 1093 l 219 1093 l 89 425 b 426 -24 39 169 181 -24 z "},"Ú":{"ha":981,"x_min":0,"x_max":0,"o":"m 638 1183 l 842 1405 l 652 1405 l 483 1183 z m 426 -24 b 899 425 655 -24 843 138 l 1028 1093 l 802 1093 l 673 425 b 461 199 645 281 565 199 b 315 425 353 199 290 292 l 445 1093 l 219 1093 l 89 425 b 426 -24 39 169 181 -24 z "},"ú":{"ha":981,"x_min":0,"x_max":0,"o":"m 638 1183 l 842 1405 l 652 1405 l 483 1183 z m 426 -24 b 899 425 655 -24 843 138 l 1028 1093 l 802 1093 l 673 425 b 461 199 645 281 565 199 b 315 425 353 199 290 292 l 445 1093 l 219 1093 l 89 425 b 426 -24 39 169 181 -24 z "},"Û":{"ha":981,"x_min":0,"x_max":0,"o":"m 374 1193 l 555 1193 l 671 1289 l 750 1193 l 912 1193 l 734 1392 l 626 1392 z m 426 -24 b 899 425 655 -24 843 138 l 1028 1093 l 802 1093 l 673 425 b 461 199 645 281 565 199 b 315 425 353 199 290 292 l 445 1093 l 219 1093 l 89 425 b 426 -24 39 169 181 -24 z "},"û":{"ha":981,"x_min":0,"x_max":0,"o":"m 374 1193 l 555 1193 l 671 1289 l 750 1193 l 912 1193 l 734 1392 l 626 1392 z m 426 -24 b 899 425 655 -24 843 138 l 1028 1093 l 802 1093 l 673 425 b 461 199 645 281 565 199 b 315 425 353 199 290 292 l 445 1093 l 219 1093 l 89 425 b 426 -24 39 169 181 -24 z "},"Ü":{"ha":981,"x_min":0,"x_max":0,"o":"m 494 1206 b 591 1287 538 1206 583 1242 b 526 1369 600 1331 570 1369 b 428 1287 481 1369 437 1331 b 494 1206 419 1242 450 1206 z m 798 1206 b 896 1287 843 1206 887 1242 b 829 1369 905 1331 874 1369 b 732 1287 785 1369 741 1331 b 798 1206 724 1242 753 1206 z m 426 -24 b 899 425 655 -24 843 138 l 1028 1093 l 802 1093 l 673 425 b 461 199 645 281 565 199 b 315 425 353 199 290 292 l 445 1093 l 219 1093 l 89 425 b 426 -24 39 169 181 -24 z "},"ü":{"ha":981,"x_min":0,"x_max":0,"o":"m 494 1206 b 591 1287 538 1206 583 1242 b 526 1369 600 1331 570 1369 b 428 1287 481 1369 437 1331 b 494 1206 419 1242 450 1206 z m 798 1206 b 896 1287 843 1206 887 1242 b 829 1369 905 1331 874 1369 b 732 1287 785 1369 741 1331 b 798 1206 724 1242 753 1206 z m 426 -24 b 899 425 655 -24 843 138 l 1028 1093 l 802 1093 l 673 425 b 461 199 645 281 565 199 b 315 425 353 199 290 292 l 445 1093 l 219 1093 l 89 425 b 426 -24 39 169 181 -24 z "},"Ù":{"ha":981,"x_min":0,"x_max":0,"o":"m 610 1183 l 766 1183 l 682 1405 l 492 1405 z m 426 -24 b 899 425 655 -24 843 138 l 1028 1093 l 802 1093 l 673 425 b 461 199 645 281 565 199 b 315 425 353 199 290 292 l 445 1093 l 219 1093 l 89 425 b 426 -24 39 169 181 -24 z "},"ù":{"ha":981,"x_min":0,"x_max":0,"o":"m 610 1183 l 766 1183 l 682 1405 l 492 1405 z m 426 -24 b 899 425 655 -24 843 138 l 1028 1093 l 802 1093 l 673 425 b 461 199 645 281 565 199 b 315 425 353 199 290 292 l 445 1093 l 219 1093 l 89 425 b 426 -24 39 169 181 -24 z "},"Ű":{"ha":981,"x_min":0,"x_max":0,"o":"m 392 1183 l 526 1183 l 704 1405 l 534 1405 z m 622 1183 l 764 1183 l 989 1405 l 806 1405 z m 426 -24 b 899 425 655 -24 843 138 l 1028 1093 l 802 1093 l 673 425 b 461 199 645 281 565 199 b 315 425 353 199 290 292 l 445 1093 l 219 1093 l 89 425 b 426 -24 39 169 181 -24 z "},"ű":{"ha":981,"x_min":0,"x_max":0,"o":"m 392 1183 l 526 1183 l 704 1405 l 534 1405 z m 622 1183 l 764 1183 l 989 1405 l 806 1405 z m 426 -24 b 899 425 655 -24 843 138 l 1028 1093 l 802 1093 l 673 425 b 461 199 645 281 565 199 b 315 425 353 199 290 292 l 445 1093 l 219 1093 l 89 425 b 426 -24 39 169 181 -24 z "},"Ū":{"ha":981,"x_min":0,"x_max":0,"o":"m 452 1226 l 847 1226 l 869 1336 l 474 1336 z m 426 -24 b 899 425 655 -24 843 138 l 1028 1093 l 802 1093 l 673 425 b 461 199 645 281 565 199 b 315 425 353 199 290 292 l 445 1093 l 219 1093 l 89 425 b 426 -24 39 169 181 -24 z "},"ū":{"ha":981,"x_min":0,"x_max":0,"o":"m 452 1226 l 847 1226 l 869 1336 l 474 1336 z m 426 -24 b 899 425 655 -24 843 138 l 1028 1093 l 802 1093 l 673 425 b 461 199 645 281 565 199 b 315 425 353 199 290 292 l 445 1093 l 219 1093 l 89 425 b 426 -24 39 169 181 -24 z "},"Ų":{"ha":981,"x_min":0,"x_max":0,"o":"m 802 1093 l 673 425 b 461 199 645 281 565 199 b 315 425 353 199 290 292 l 445 1093 l 219 1093 l 89 425 b 342 -16 45 199 150 24 b 233 -210 279 -60 233 -129 b 425 -369 233 -309 302 -369 b 538 -355 458 -369 496 -365 l 514 -203 b 437 -214 481 -211 450 -214 b 389 -159 392 -214 389 -173 b 494 -19 389 -114 422 -75 b 899 425 692 10 848 168 l 1028 1093 z "},"ų":{"ha":981,"x_min":0,"x_max":0,"o":"m 802 1093 l 673 425 b 461 199 645 281 565 199 b 315 425 353 199 290 292 l 445 1093 l 219 1093 l 89 425 b 342 -16 45 199 150 24 b 233 -210 279 -60 233 -129 b 425 -369 233 -309 302 -369 b 538 -355 458 -369 496 -365 l 514 -203 b 437 -214 481 -211 450 -214 b 389 -159 392 -214 389 -173 b 494 -19 389 -114 422 -75 b 899 425 692 10 848 168 l 1028 1093 z "},"Ů":{"ha":981,"x_min":0,"x_max":0,"o":"m 641 1158 b 816 1309 727 1158 802 1225 b 693 1459 831 1398 773 1459 b 515 1309 606 1459 530 1394 b 641 1158 501 1225 555 1158 z m 654 1247 b 604 1308 620 1247 597 1274 b 677 1370 611 1344 643 1370 b 727 1308 711 1370 734 1343 b 654 1247 720 1272 688 1247 z m 426 -24 b 899 425 655 -24 843 138 l 1028 1093 l 802 1093 l 673 425 b 461 199 645 281 565 199 b 315 425 353 199 290 292 l 445 1093 l 219 1093 l 89 425 b 426 -24 39 169 181 -24 z "},"ů":{"ha":981,"x_min":0,"x_max":0,"o":"m 641 1158 b 816 1309 727 1158 802 1225 b 693 1459 831 1398 773 1459 b 515 1309 606 1459 530 1394 b 641 1158 501 1225 555 1158 z m 654 1247 b 604 1308 620 1247 597 1274 b 677 1370 611 1344 643 1370 b 727 1308 711 1370 734 1343 b 654 1247 720 1272 688 1247 z m 426 -24 b 899 425 655 -24 843 138 l 1028 1093 l 802 1093 l 673 425 b 461 199 645 281 565 199 b 315 425 353 199 290 292 l 445 1093 l 219 1093 l 89 425 b 426 -24 39 169 181 -24 z "},"V":{"ha":1019,"x_min":0,"x_max":0,"o":"m 876 1093 l 510 473 l 378 1093 l 148 1093 l 413 -27 l 436 -27 l 1139 1093 z "},"v":{"ha":1019,"x_min":0,"x_max":0,"o":"m 876 1093 l 510 473 l 378 1093 l 148 1093 l 413 -27 l 436 -27 l 1139 1093 z "},"W":{"ha":1261,"x_min":0,"x_max":0,"o":"m 272 -14 l 292 -14 l 662 581 l 806 -14 l 827 -14 l 1381 1093 l 1128 1093 l 868 543 l 753 1089 l 747 1089 l 419 542 l 369 1093 l 148 1093 z "},"w":{"ha":1261,"x_min":0,"x_max":0,"o":"m 272 -14 l 292 -14 l 662 581 l 806 -14 l 827 -14 l 1381 1093 l 1128 1093 l 868 543 l 753 1089 l 747 1089 l 419 542 l 369 1093 l 148 1093 z "},"Ẃ":{"ha":1261,"x_min":0,"x_max":0,"o":"m 779 1183 l 983 1405 l 793 1405 l 623 1183 z m 272 -14 l 292 -14 l 662 581 l 806 -14 l 827 -14 l 1381 1093 l 1128 1093 l 868 543 l 753 1089 l 747 1089 l 419 542 l 369 1093 l 148 1093 z "},"ẃ":{"ha":1261,"x_min":0,"x_max":0,"o":"m 779 1183 l 983 1405 l 793 1405 l 623 1183 z m 272 -14 l 292 -14 l 662 581 l 806 -14 l 827 -14 l 1381 1093 l 1128 1093 l 868 543 l 753 1089 l 747 1089 l 419 542 l 369 1093 l 148 1093 z "},"Ŵ":{"ha":1261,"x_min":0,"x_max":0,"o":"m 515 1193 l 696 1193 l 811 1289 l 890 1193 l 1053 1193 l 874 1392 l 766 1392 z m 272 -14 l 292 -14 l 662 581 l 806 -14 l 827 -14 l 1381 1093 l 1128 1093 l 868 543 l 753 1089 l 747 1089 l 419 542 l 369 1093 l 148 1093 z "},"ŵ":{"ha":1261,"x_min":0,"x_max":0,"o":"m 515 1193 l 696 1193 l 811 1289 l 890 1193 l 1053 1193 l 874 1392 l 766 1392 z m 272 -14 l 292 -14 l 662 581 l 806 -14 l 827 -14 l 1381 1093 l 1128 1093 l 868 543 l 753 1089 l 747 1089 l 419 542 l 369 1093 l 148 1093 z "},"Ẅ":{"ha":1261,"x_min":0,"x_max":0,"o":"m 634 1206 b 731 1287 678 1206 722 1242 b 665 1369 740 1331 709 1369 b 568 1287 621 1369 576 1331 b 634 1206 559 1242 589 1206 z m 938 1206 b 1036 1287 983 1206 1027 1242 b 969 1369 1044 1331 1014 1369 b 872 1287 925 1369 881 1331 b 938 1206 863 1242 893 1206 z m 272 -14 l 292 -14 l 662 581 l 806 -14 l 827 -14 l 1381 1093 l 1128 1093 l 868 543 l 753 1089 l 747 1089 l 419 542 l 369 1093 l 148 1093 z "},"ẅ":{"ha":1261,"x_min":0,"x_max":0,"o":"m 634 1206 b 731 1287 678 1206 722 1242 b 665 1369 740 1331 709 1369 b 568 1287 621 1369 576 1331 b 634 1206 559 1242 589 1206 z m 938 1206 b 1036 1287 983 1206 1027 1242 b 969 1369 1044 1331 1014 1369 b 872 1287 925 1369 881 1331 b 938 1206 863 1242 893 1206 z m 272 -14 l 292 -14 l 662 581 l 806 -14 l 827 -14 l 1381 1093 l 1128 1093 l 868 543 l 753 1089 l 747 1089 l 419 542 l 369 1093 l 148 1093 z "},"Ẁ":{"ha":1261,"x_min":0,"x_max":0,"o":"m 751 1183 l 906 1183 l 823 1405 l 633 1405 z m 272 -14 l 292 -14 l 662 581 l 806 -14 l 827 -14 l 1381 1093 l 1128 1093 l 868 543 l 753 1089 l 747 1089 l 419 542 l 369 1093 l 148 1093 z "},"ẁ":{"ha":1261,"x_min":0,"x_max":0,"o":"m 751 1183 l 906 1183 l 823 1405 l 633 1405 z m 272 -14 l 292 -14 l 662 581 l 806 -14 l 827 -14 l 1381 1093 l 1128 1093 l 868 543 l 753 1089 l 747 1089 l 419 542 l 369 1093 l 148 1093 z "},"X":{"ha":937,"x_min":0,"x_max":0,"o":"m -65 0 l 212 0 l 481 373 l 606 0 l 843 0 l 642 550 l 1057 1093 l 779 1093 l 536 756 l 422 1093 l 186 1093 l 376 586 z "},"x":{"ha":937,"x_min":0,"x_max":0,"o":"m -65 0 l 212 0 l 481 373 l 606 0 l 843 0 l 642 550 l 1057 1093 l 779 1093 l 536 756 l 422 1093 l 186 1093 l 376 586 z "},"Y":{"ha":888,"x_min":0,"x_max":0,"o":"m 253 0 l 477 0 l 568 469 l 1007 1093 l 741 1093 l 490 713 l 382 1093 l 148 1093 l 344 469 z "},"y":{"ha":888,"x_min":0,"x_max":0,"o":"m 253 0 l 477 0 l 568 469 l 1007 1093 l 741 1093 l 490 713 l 382 1093 l 148 1093 l 344 469 z "},"Ý":{"ha":888,"x_min":0,"x_max":0,"o":"m 592 1183 l 796 1405 l 606 1405 l 437 1183 z m 253 0 l 477 0 l 568 469 l 1007 1093 l 741 1093 l 490 713 l 382 1093 l 148 1093 l 344 469 z "},"ý":{"ha":888,"x_min":0,"x_max":0,"o":"m 592 1183 l 796 1405 l 606 1405 l 437 1183 z m 253 0 l 477 0 l 568 469 l 1007 1093 l 741 1093 l 490 713 l 382 1093 l 148 1093 l 344 469 z "},"Ŷ":{"ha":888,"x_min":0,"x_max":0,"o":"m 328 1193 l 509 1193 l 625 1289 l 704 1193 l 866 1193 l 688 1392 l 580 1392 z m 253 0 l 477 0 l 568 469 l 1007 1093 l 741 1093 l 490 713 l 382 1093 l 148 1093 l 344 469 z "},"ŷ":{"ha":888,"x_min":0,"x_max":0,"o":"m 328 1193 l 509 1193 l 625 1289 l 704 1193 l 866 1193 l 688 1392 l 580 1392 z m 253 0 l 477 0 l 568 469 l 1007 1093 l 741 1093 l 490 713 l 382 1093 l 148 1093 l 344 469 z "},"ÿ":{"ha":888,"x_min":0,"x_max":0,"o":"m 448 1206 b 545 1287 492 1206 536 1242 b 479 1369 554 1331 524 1369 b 382 1287 435 1369 391 1331 b 448 1206 373 1242 404 1206 z m 752 1206 b 850 1287 797 1206 841 1242 b 783 1369 859 1331 828 1369 b 686 1287 739 1369 695 1331 b 752 1206 677 1242 707 1206 z m 253 0 l 477 0 l 568 469 l 1007 1093 l 741 1093 l 490 713 l 382 1093 l 148 1093 l 344 469 z "},"Ÿ":{"ha":888,"x_min":0,"x_max":0,"o":"m 448 1206 b 545 1287 492 1206 536 1242 b 479 1369 554 1331 524 1369 b 382 1287 435 1369 391 1331 b 448 1206 373 1242 404 1206 z m 752 1206 b 850 1287 797 1206 841 1242 b 783 1369 859 1331 828 1369 b 686 1287 739 1369 695 1331 b 752 1206 677 1242 707 1206 z m 253 0 l 477 0 l 568 469 l 1007 1093 l 741 1093 l 490 713 l 382 1093 l 148 1093 l 344 469 z "},"Ỳ":{"ha":888,"x_min":0,"x_max":0,"o":"m 564 1183 l 720 1183 l 636 1405 l 446 1405 z m 253 0 l 477 0 l 568 469 l 1007 1093 l 741 1093 l 490 713 l 382 1093 l 148 1093 l 344 469 z "},"ỳ":{"ha":888,"x_min":0,"x_max":0,"o":"m 564 1183 l 720 1183 l 636 1405 l 446 1405 z m 253 0 l 477 0 l 568 469 l 1007 1093 l 741 1093 l 490 713 l 382 1093 l 148 1093 l 344 469 z "},"Z":{"ha":852,"x_min":0,"x_max":0,"o":"m -22 0 l 716 0 l 759 218 l 376 218 l 928 1093 l 191 1093 l 149 876 l 532 876 z "},"z":{"ha":852,"x_min":0,"x_max":0,"o":"m -22 0 l 716 0 l 759 218 l 376 218 l 928 1093 l 191 1093 l 149 876 l 532 876 z "},"Ź":{"ha":852,"x_min":0,"x_max":0,"o":"m 574 1183 l 778 1405 l 588 1405 l 418 1183 z m -22 0 l 716 0 l 759 218 l 376 218 l 928 1093 l 191 1093 l 149 876 l 532 876 z "},"ź":{"ha":852,"x_min":0,"x_max":0,"o":"m 574 1183 l 778 1405 l 588 1405 l 418 1183 z m -22 0 l 716 0 l 759 218 l 376 218 l 928 1093 l 191 1093 l 149 876 l 532 876 z "},"Ž":{"ha":852,"x_min":0,"x_max":0,"o":"m 886 1392 l 705 1392 l 590 1295 l 511 1392 l 349 1392 l 527 1193 l 635 1193 z m -22 0 l 716 0 l 759 218 l 376 218 l 928 1093 l 191 1093 l 149 876 l 532 876 z "},"ž":{"ha":852,"x_min":0,"x_max":0,"o":"m 886 1392 l 705 1392 l 590 1295 l 511 1392 l 349 1392 l 527 1193 l 635 1193 z m -22 0 l 716 0 l 759 218 l 376 218 l 928 1093 l 191 1093 l 149 876 l 532 876 z "},"Ż":{"ha":852,"x_min":0,"x_max":0,"o":"m 581 1204 b 694 1299 633 1204 684 1246 b 618 1394 704 1350 669 1394 b 505 1298 566 1394 514 1350 b 581 1204 494 1247 528 1204 z m -22 0 l 716 0 l 759 218 l 376 218 l 928 1093 l 191 1093 l 149 876 l 532 876 z "},"ż":{"ha":852,"x_min":0,"x_max":0,"o":"m 581 1204 b 694 1299 633 1204 684 1246 b 618 1394 704 1350 669 1394 b 505 1298 566 1394 514 1350 b 581 1204 494 1247 528 1204 z m -22 0 l 716 0 l 759 218 l 376 218 l 928 1093 l 191 1093 l 149 876 l 532 876 z "},"i":{"ha":416,"x_min":0,"x_max":0,"o":"m 16 0 l 242 0 l 454 1093 l 229 1093 z "},"ı":{"ha":416,"x_min":0,"x_max":0,"o":"m 16 0 l 242 0 l 454 1093 l 229 1093 z "},".":{"ha":410,"x_min":0,"x_max":0,"o":"m 121 -35 b 280 105 199 -35 267 28 b 171 245 294 184 246 245 b 13 105 96 245 27 184 b 121 -35 -1 25 45 -35 z "},",":{"ha":428,"x_min":0,"x_max":0,"o":"m 32 -247 b 286 45 149 -247 261 -102 b 174 245 308 172 256 245 b 11 97 100 245 25 188 b 102 -30 -3 5 58 -30 b 102 -81 106 -39 108 -55 b -45 -208 81 -169 7 -208 b 32 -247 -46 -220 -19 -247 z "},":":{"ha":410,"x_min":0,"x_max":0,"o":"m 227 505 b 385 644 304 505 372 567 b 276 785 399 724 351 785 b 118 644 201 785 132 723 b 227 505 104 564 151 505 z m 127 -1 b 286 139 205 -1 273 62 b 177 279 300 218 252 279 b 19 139 102 279 33 218 b 127 -1 5 59 52 -1 z "},";":{"ha":428,"x_min":0,"x_max":0,"o":"m 237 505 b 395 644 315 505 382 567 b 286 785 410 724 361 785 b 128 644 211 785 142 723 b 237 505 114 564 161 505 z m 32 -247 b 286 45 149 -247 261 -102 b 174 245 308 172 256 245 b 11 97 100 245 25 188 b 102 -30 -3 5 58 -30 b 102 -81 106 -39 108 -55 b -45 -208 81 -169 7 -208 b 32 -247 -46 -220 -19 -247 z "},"…":{"ha":1501,"x_min":0,"x_max":0,"o":"m 186 -35 b 345 105 264 -35 331 28 b 235 245 359 184 311 245 b 77 105 160 245 92 184 b 186 -35 63 25 110 -35 z m 661 -35 b 819 105 739 -35 806 28 b 710 245 833 184 785 245 b 552 105 635 245 566 184 b 661 -35 538 25 585 -35 z m 1135 -35 b 1294 105 1213 -35 1280 28 b 1185 245 1308 184 1260 245 b 1027 105 1109 245 1041 184 b 1135 -35 1013 25 1059 -35 z "},"!":{"ha":457,"x_min":0,"x_max":0,"o":"m 130 378 l 311 378 l 484 1093 l 235 1093 z m 144 -37 b 303 102 222 -37 290 25 b 194 243 317 182 269 243 b 36 102 119 243 50 181 b 144 -37 22 22 68 -37 z "},"¡":{"ha":457,"x_min":0,"x_max":0,"o":"m 308 825 b 149 686 230 825 163 763 b 258 545 135 606 183 545 b 416 686 334 545 402 607 b 308 825 431 766 384 825 z m 322 410 l 141 410 l -31 -305 l 217 -305 z "},"?":{"ha":690,"x_min":0,"x_max":0,"o":"m 197 376 l 401 377 b 406 408 402 388 404 398 b 724 829 453 625 677 585 b 458 1134 751 963 648 1134 b 162 996 341 1134 229 1077 l 203 824 b 406 922 244 880 326 922 b 522 814 489 922 534 880 b 201 396 504 724 244 614 z m 222 -37 b 381 102 300 -37 368 25 b 272 243 395 182 347 243 b 114 102 197 243 128 181 b 222 -37 100 22 146 -37 z "},"¿":{"ha":690,"x_min":0,"x_max":0,"o":"m 467 849 b 309 709 389 849 322 787 b 418 569 294 630 342 569 b 576 709 493 569 562 631 b 467 849 590 789 543 849 z m 493 435 l 288 435 b 283 404 288 424 286 414 b -35 -17 237 186 13 227 b 231 -322 -61 -151 42 -322 b 528 -184 349 -322 460 -265 l 487 -12 b 284 -110 446 -68 364 -110 b 168 -3 201 -110 155 -68 b 489 416 186 88 446 197 z "},"·":{"ha":410,"x_min":0,"x_max":0,"o":"m 204 393 b 363 532 282 393 349 455 b 254 673 377 612 329 673 b 96 532 178 673 110 611 b 204 393 81 452 128 393 z "},"•":{"ha":715,"x_min":0,"x_max":0,"o":"m 317 313 b 568 532 435 313 545 404 b 397 753 591 653 521 753 b 146 532 274 753 168 654 b 317 313 124 412 194 313 z "},"*":{"ha":564,"x_min":0,"x_max":0,"o":"m 258 641 l 397 641 l 406 815 l 503 709 l 597 822 l 446 891 l 625 966 l 574 1080 l 436 973 l 496 1148 l 357 1148 l 348 973 l 252 1080 l 157 966 l 308 895 l 128 822 l 180 709 l 317 817 z "},"#":{"ha":1028,"x_min":0,"x_max":0,"o":"m 970 637 l 1021 801 l 888 801 l 982 1093 l 800 1093 l 707 801 l 497 801 l 591 1093 l 409 1093 l 315 801 l 174 801 l 121 637 l 263 637 l 193 417 l 51 417 l 0 254 l 140 254 l 60 0 l 241 0 l 322 254 l 532 254 l 451 0 l 633 0 l 713 254 l 846 254 l 899 417 l 766 417 l 836 637 z m 584 417 l 374 417 l 445 637 l 654 637 z "},"/":{"ha":665,"x_min":0,"x_max":0,"o":"m -81 -81 l 136 -81 l 800 1175 l 582 1175 z "},"\\":{"ha":665,"x_min":0,"x_max":0,"o":"m 745 -81 l 83 1175 l -135 1175 l 528 -81 z "},"‥":{"ha":986,"x_min":0,"x_max":0,"o":"m 186 -35 b 345 105 264 -35 331 28 b 235 245 359 184 311 245 b 77 105 160 245 92 184 b 186 -35 63 25 110 -35 z m 620 -35 b 779 105 698 -35 765 28 b 669 245 793 184 745 245 b 511 105 594 245 526 184 b 620 -35 497 25 544 -35 z "},"(":{"ha":465,"x_min":0,"x_max":0,"o":"m 134 -81 l 323 -81 b 277 568 260 82 239 374 b 566 1175 323 804 391 947 l 378 1175 b 79 568 200 969 129 826 b 134 -81 39 361 64 69 z "},")":{"ha":465,"x_min":0,"x_max":0,"o":"m 141 -81 b 449 568 271 69 409 361 b 385 1175 500 826 484 969 l 197 1175 b 251 568 284 947 297 804 b -47 -81 214 374 79 82 z "},"{":{"ha":581,"x_min":0,"x_max":0,"o":"m 292 -81 l 439 -81 l 471 83 l 380 83 b 336 214 336 83 322 142 l 352 301 b 264 573 378 451 340 573 b 458 844 340 573 426 695 l 467 893 b 560 1008 482 964 512 1007 l 651 1010 l 683 1175 l 536 1175 b 304 974 411 1175 328 1099 l 281 866 b 92 635 255 739 171 635 l 68 510 b 167 279 146 510 190 406 l 138 119 b 292 -81 117 9 180 -81 z "},"}":{"ha":581,"x_min":0,"x_max":0,"o":"m 99 -81 b 331 119 212 -81 310 9 l 365 279 b 553 510 391 406 475 510 l 578 635 b 478 866 499 635 456 739 l 497 974 b 343 1175 522 1099 469 1175 l 197 1175 l 165 1010 l 255 1008 b 303 893 302 1007 315 964 l 294 844 b 382 573 267 695 307 573 b 189 301 307 573 220 451 l 170 214 b 75 83 156 142 119 83 l -16 83 l -47 -81 z "},"[":{"ha":482,"x_min":0,"x_max":0,"o":"m 551 1010 l 583 1175 l 244 1175 l 0 -81 l 339 -81 l 372 83 l 231 83 l 412 1010 z "},"]":{"ha":482,"x_min":0,"x_max":0,"o":"m 536 1175 l 197 1175 l 165 1010 l 305 1010 l 125 83 l -16 83 l -47 -81 l 292 -81 z "},"-":{"ha":606,"x_min":0,"x_max":0,"o":"m 54 437 l 564 437 l 602 629 l 91 629 z "},"–":{"ha":960,"x_min":0,"x_max":0,"o":"m 74 437 l 899 437 l 936 629 l 111 629 z "},"—":{"ha":1389,"x_min":0,"x_max":0,"o":"m 67 437 l 1334 437 l 1371 629 l 104 629 z "},"‒":{"ha":676,"x_min":0,"x_max":0,"o":"m 54 437 l 635 437 l 672 629 l 91 629 z "},"_":{"ha":781,"x_min":0,"x_max":0,"o":"m -94 -75 l 688 -75 l 717 75 l -64 75 z "},"‚":{"ha":355,"x_min":0,"x_max":0,"o":"m 9 -205 b 240 61 115 -205 217 -73 b 138 243 260 176 212 243 b -10 108 71 243 3 191 b 73 -7 -24 24 33 -7 b 72 -54 76 -16 78 -31 b -61 -169 54 -134 -14 -169 b 9 -205 -62 -180 -37 -205 z "},"„":{"ha":709,"x_min":0,"x_max":0,"o":"m 9 -205 b 240 60 115 -205 217 -73 b 138 242 260 176 212 242 b -10 107 71 242 3 190 b 73 -8 -24 24 33 -8 b 72 -54 76 -16 78 -31 b -61 -170 54 -134 -14 -170 b 9 -205 -62 -181 -37 -205 z m 363 -205 b 595 60 470 -205 572 -73 b 492 242 614 176 567 242 b 345 107 426 242 357 190 b 427 -8 331 24 387 -8 b 427 -54 431 -16 433 -31 b 294 -170 408 -134 341 -170 b 363 -205 292 -181 317 -205 z "},"“":{"ha":709,"x_min":0,"x_max":0,"o":"m 363 1109 b 132 844 257 1109 155 977 b 235 662 113 728 160 662 b 382 797 301 662 370 714 b 300 912 396 880 340 912 b 300 958 296 920 294 935 b 433 1074 319 1038 386 1074 b 363 1109 435 1085 410 1109 z m 718 1109 b 487 844 612 1109 510 977 b 589 662 467 728 515 662 b 737 797 656 662 724 714 b 654 912 751 880 694 912 b 655 958 651 920 649 935 b 788 1074 673 1038 741 1074 b 718 1109 789 1085 764 1109 z "},"”":{"ha":709,"x_min":0,"x_max":0,"o":"m 178 669 b 410 935 285 669 387 801 b 307 1116 429 1050 382 1116 b 159 981 241 1116 172 1064 b 242 866 146 898 202 866 b 241 820 245 858 248 843 b 109 705 223 740 156 705 b 178 669 107 693 132 669 z m 533 669 b 764 935 640 669 741 801 b 662 1116 784 1050 736 1116 b 514 981 595 1116 527 1064 b 597 866 500 898 557 866 b 596 820 600 858 602 843 b 463 705 578 740 511 705 b 533 669 462 693 487 669 z "},"‘":{"ha":355,"x_min":0,"x_max":0,"o":"m 363 1109 b 132 844 257 1109 155 977 b 235 662 113 728 160 662 b 382 797 301 662 370 714 b 300 912 396 880 340 912 b 300 958 296 920 294 935 b 433 1074 319 1038 386 1074 b 363 1109 435 1085 410 1109 z "},"’":{"ha":355,"x_min":0,"x_max":0,"o":"m 179 671 b 410 937 286 671 387 803 b 308 1118 430 1052 382 1118 b 160 983 241 1118 173 1066 b 243 868 146 900 203 868 b 242 822 246 860 248 845 b 109 707 224 742 157 707 b 179 671 108 695 133 671 z "},"‛":{"ha":355,"x_min":0,"x_max":0,"o":"m 279 675 b 363 711 326 675 359 699 b 275 826 315 711 262 746 b 292 872 278 849 286 864 b 420 987 332 872 400 904 b 324 1122 439 1070 391 1122 b 151 941 250 1122 176 1056 b 279 675 122 807 172 675 z "},"«":{"ha":858,"x_min":0,"x_max":0,"o":"m 543 880 l 396 907 l 79 570 l 254 178 l 391 205 l 279 547 z m 903 880 l 755 907 l 439 570 l 614 178 l 751 205 l 638 547 z "},"»":{"ha":858,"x_min":0,"x_max":0,"o":"m 273 786 l 136 758 l 249 417 l -16 83 l 132 56 l 448 394 z m 633 786 l 496 758 l 608 417 l 344 83 l 491 56 l 808 394 z "},"‹":{"ha":498,"x_min":0,"x_max":0,"o":"m 543 880 l 396 907 l 79 570 l 254 178 l 391 205 l 279 547 z "},"›":{"ha":498,"x_min":0,"x_max":0,"o":"m 273 787 l 136 759 l 249 418 l -16 84 l 132 57 l 448 395 z "},"\"":{"ha":592,"x_min":0,"x_max":0,"o":"m 163 765 l 294 765 l 410 1121 l 186 1121 z m 437 765 l 568 765 l 684 1121 l 460 1121 z "},"'":{"ha":318,"x_min":0,"x_max":0,"o":"m 163 765 l 294 765 l 410 1121 l 186 1121 z "},"　":{"ha":1389,"x_min":0,"x_max":0,"o":""}," ":{"ha":6250,"x_min":0,"x_max":0,"o":""}," ":{"ha":1389,"x_min":0,"x_max":0,"o":""}," ":{"ha":1389,"x_min":0,"x_max":0,"o":""}," ":{"ha":694,"x_min":0,"x_max":0,"o":""}," ":{"ha":694,"x_min":0,"x_max":0,"o":""}," ":{"ha":952,"x_min":0,"x_max":0,"o":""}," ":{"ha":347,"x_min":0,"x_max":0,"o":""}," ":{"ha":199,"x_min":0,"x_max":0,"o":""}," ":{"ha":326,"x_min":0,"x_max":0,"o":""}," ":{"ha":410,"x_min":0,"x_max":0,"o":""}," ":{"ha":231,"x_min":0,"x_max":0,"o":""}," ":{"ha":278,"x_min":0,"x_max":0,"o":""}," ":{"ha":463,"x_min":0,"x_max":0,"o":""},"​":{"ha":0,"x_min":0,"x_max":0,"o":""},"‍":{"ha":0,"x_min":0,"x_max":0,"o":""},"‌":{"ha":0,"x_min":0,"x_max":0,"o":""},"":{"ha":1351,"x_min":0,"x_max":0,"o":""},"฿":{"ha":854,"x_min":0,"x_max":0,"o":"m 635 616 b 772 803 688 633 753 694 b 608 1078 794 930 727 1040 l 637 1226 l 458 1226 l 432 1093 l 229 1093 l 16 0 l 233 0 l 202 -159 l 380 -159 l 412 0 b 809 325 631 5 776 137 b 635 616 842 509 748 616 z m 413 880 l 479 880 b 567 774 545 880 578 832 b 441 666 553 703 512 666 l 372 666 z m 600 340 b 418 214 586 265 523 214 l 284 214 l 334 473 l 469 473 b 600 340 563 473 615 420 z "},"₿":{"ha":854,"x_min":0,"x_max":0,"o":"m 635 616 b 772 803 688 633 753 694 b 670 1049 790 906 749 998 l 705 1226 l 574 1226 l 547 1091 b 509 1093 535 1093 522 1093 l 482 1093 l 508 1226 l 377 1226 l 351 1093 l 229 1093 l 16 0 l 165 0 l 134 -159 l 265 -159 l 296 0 l 362 0 l 331 -159 l 462 -159 l 494 9 b 809 325 668 41 780 162 b 635 616 842 509 748 616 z m 567 774 b 441 666 553 703 512 666 l 372 666 l 413 880 l 479 880 b 567 774 545 880 578 832 z m 600 340 b 418 214 586 265 523 214 l 284 214 l 334 473 l 469 473 b 600 340 563 473 615 420 z "},"¢":{"ha":779,"x_min":0,"x_max":0,"o":"m 439 891 l 623 895 l 661 1086 l 477 1085 z m 252 -74 l 435 -74 l 474 125 l 291 130 z "},"¤":{"ha":800,"x_min":0,"x_max":0,"o":"m 702 547 b 686 702 713 604 706 657 l 835 830 l 772 913 l 623 784 b 476 833 584 815 534 833 b 325 789 421 833 370 817 l 231 916 l 137 834 l 232 707 b 155 545 193 659 165 602 b 170 395 145 489 151 438 l 20 265 l 81 182 l 231 311 b 380 260 271 279 321 260 b 531 304 433 260 486 277 l 626 178 l 720 259 l 625 386 b 702 547 664 433 691 489 z m 411 429 b 323 547 351 429 313 478 b 441 664 332 606 378 664 b 532 547 496 664 545 621 b 411 429 523 487 475 429 z "},"$":{"ha":829,"x_min":0,"x_max":0,"o":"m 564 633 b 404 798 477 686 392 721 b 530 901 412 852 465 901 b 673 794 593 901 655 863 l 851 916 b 634 1109 827 1009 745 1085 l 657 1226 l 479 1226 l 454 1103 b 188 844 320 1070 214 974 b 366 503 151 659 260 568 b 544 300 442 455 559 391 b 391 199 532 233 454 199 b 180 339 310 199 232 245 l 1 217 b 252 -9 39 109 127 23 l 222 -159 l 401 -159 l 429 -18 b 767 286 611 7 736 127 b 564 633 794 426 736 530 z "},"€":{"ha":1158,"x_min":0,"x_max":0,"o":"m 678 199 b 437 408 555 199 462 283 l 815 408 l 848 517 l 432 517 b 438 559 433 531 435 545 l 444 585 l 868 585 l 901 694 l 490 694 b 801 892 558 812 677 892 b 1036 736 892 892 962 847 l 1203 882 b 849 1114 1132 1019 998 1103 b 247 694 636 1127 357 985 l 115 694 l 82 585 l 216 585 b 211 559 214 576 212 568 b 205 517 208 545 207 531 l 80 517 l 47 408 l 202 408 b 648 -21 217 154 389 -21 b 1047 133 800 -21 940 39 l 951 324 b 678 199 869 253 777 199 z "},"ƒ":{"ha":871,"x_min":0,"x_max":0,"o":"m 836 1104 b 429 772 600 1104 515 999 l 378 639 l 132 639 l 102 483 l 319 483 l 302 438 b 88 218 218 218 169 218 l -8 218 l -51 0 l 92 0 b 507 355 340 0 421 131 l 555 483 l 800 483 l 829 639 l 615 639 l 634 688 b 839 884 709 884 753 884 l 935 884 l 978 1104 z "},"₣":{"ha":757,"x_min":0,"x_max":0,"o":"m 819 877 l 862 1096 l 229 1096 l 80 330 l -7 330 l -37 174 l 50 174 l 16 -1 l 241 -1 l 275 174 l 498 174 l 528 330 l 306 330 l 327 437 l 673 437 l 715 656 l 369 656 l 412 877 z "},"₭":{"ha":904,"x_min":0,"x_max":0,"o":"m 997 1093 l 731 1093 l 387 654 l 369 654 l 454 1093 l 229 1093 l 143 654 l 62 654 l 25 468 l 107 468 l 16 0 l 242 0 l 333 468 l 363 468 l 571 0 l 815 0 l 604 468 l 821 468 l 859 654 l 650 654 z "},"₤":{"ha":771,"x_min":0,"x_max":0,"o":"m 593 913 b 694 879 644 913 671 897 l 820 1044 b 610 1111 771 1095 688 1111 b 184 755 396 1111 225 989 b 176 669 179 725 177 696 l 104 669 l 80 547 l 179 547 b 182 500 180 531 181 515 l 71 500 l 47 378 l 173 378 b 87 197 159 319 130 257 l 7 197 l -31 0 l 644 0 l 682 197 l 312 197 b 395 378 353 251 381 315 l 543 378 l 566 500 l 404 500 b 399 547 402 516 401 532 l 576 547 l 600 669 l 397 669 b 402 707 398 681 400 694 b 593 913 427 847 491 913 z "},"₦":{"ha":1074,"x_min":0,"x_max":0,"o":"m 1116 654 l 1006 654 l 1093 1096 l 867 1096 l 749 487 l 273 1114 l 253 1114 l 163 654 l 56 654 l 18 468 l 127 468 l 36 -1 l 261 -1 l 379 608 l 856 -20 l 876 -20 l 970 468 l 1078 468 z "},"₱":{"ha":1053,"x_min":0,"x_max":0,"o":"m 962 739 l 1088 739 l 1116 882 l 951 882 b 643 1093 911 1017 791 1093 l 295 1093 l 254 882 l 121 882 l 94 739 l 227 739 l 221 712 l 88 712 l 60 570 l 193 570 l 83 0 l 309 0 l 378 355 l 500 355 b 912 570 699 355 841 437 l 1055 570 l 1083 712 l 959 712 b 960 718 959 714 960 715 b 962 739 961 725 962 732 z m 743 719 b 542 572 731 630 663 572 l 420 573 l 479 876 l 601 876 b 743 719 690 876 756 817 z "},"₽":{"ha":1010,"x_min":0,"x_max":0,"o":"m 710 1093 l 326 1093 l 230 600 l 85 600 l 45 396 l 191 396 l 173 307 l 28 307 l -2 151 l 142 151 l 113 0 l 333 0 l 363 151 l 649 151 l 679 307 l 393 307 l 410 396 l 554 396 b 1027 738 808 396 992 534 b 710 1093 1065 959 899 1093 z m 807 739 b 616 613 795 658 727 613 l 452 614 l 503 876 l 667 876 b 807 739 755 876 820 827 z "},"₨":{"ha":854,"x_min":0,"x_max":0,"o":"m 788 903 l 902 903 l 971 1093 l 261 1093 l 191 903 l 406 903 b 559 822 491 903 543 873 l 211 822 l 161 684 l 543 684 b 342 573 511 617 443 572 l 142 574 l 140 568 l 489 0 l 745 0 l 470 408 b 777 684 606 400 728 536 l 871 684 l 921 822 l 800 822 b 788 903 800 851 795 878 z "},"£":{"ha":771,"x_min":0,"x_max":0,"o":"m 402 707 b 593 913 427 847 491 913 b 694 879 644 913 671 897 l 820 1044 b 610 1111 771 1095 688 1111 b 184 755 396 1111 225 989 b 177 588 174 694 174 640 l 90 588 l 60 432 l 181 432 b 176 395 180 420 178 407 b 87 197 165 331 134 262 l 7 197 l -31 0 l 644 0 l 682 197 l 312 197 b 399 395 357 256 387 326 b 404 432 401 408 403 420 l 555 432 l 585 588 l 395 588 b 402 707 393 621 393 659 z "},"₸":{"ha":780,"x_min":0,"x_max":0,"o":"m 162 1093 l 121 882 l 844 882 l 884 1093 z m 830 814 l 108 814 l 67 603 l 311 603 l 199 0 l 423 0 l 534 603 l 789 603 z "},"₮":{"ha":815,"x_min":0,"x_max":0,"o":"m 848 876 l 890 1093 l 162 1093 l 120 876 l 371 876 l 318 602 l 126 513 l 98 368 l 290 457 l 275 385 l 83 296 l 56 151 l 248 239 l 201 0 l 427 0 l 496 355 l 688 444 l 717 589 l 524 500 l 538 572 l 731 661 l 759 806 l 567 718 l 597 876 z "},"₩":{"ha":1261,"x_min":0,"x_max":0,"o":"m 1381 1093 l 1128 1093 l 868 543 l 753 1089 l 747 1089 l 419 542 l 369 1093 l 148 1093 l 198 644 l 73 644 l 35 454 l 220 454 l 272 -14 l 292 -14 l 662 581 l 806 -14 l 827 -14 l 1061 454 l 1245 454 l 1282 644 l 1156 644 z "},"¥":{"ha":954,"x_min":0,"x_max":0,"o":"m 1040 1093 l 774 1093 l 523 713 l 416 1093 l 181 1093 l 331 616 l 115 616 l 82 447 l 373 447 l 359 374 l 68 374 l 35 205 l 326 205 l 286 0 l 511 0 l 550 205 l 831 205 l 864 374 l 583 374 l 597 447 l 878 447 l 911 616 l 705 616 z "},"+":{"ha":836,"x_min":0,"x_max":0,"o":"m 784 628 l 562 628 l 614 897 l 413 897 l 361 628 l 138 628 l 98 425 l 321 425 l 269 155 l 470 155 l 522 425 l 745 425 z "},"−":{"ha":823,"x_min":0,"x_max":0,"o":"m 99 425 l 731 425 l 770 629 l 138 629 z "},"×":{"ha":907,"x_min":0,"x_max":0,"o":"m 882 765 l 758 922 l 495 677 l 334 909 l 179 781 l 347 540 l 71 285 l 195 130 l 460 376 l 621 146 l 776 274 l 610 513 z "},"÷":{"ha":988,"x_min":0,"x_max":0,"o":"m 547 730 b 703 865 617 730 688 793 b 598 1002 717 938 669 1002 b 443 866 529 1002 458 941 b 547 730 429 791 475 729 z m 100 431 l 898 431 l 933 613 l 135 613 z m 410 33 b 567 170 482 33 553 98 b 463 306 581 243 533 306 b 308 170 395 306 323 246 b 410 33 293 95 340 33 z "},"=":{"ha":911,"x_min":0,"x_max":0,"o":"m 137 621 l 858 621 l 895 814 l 174 814 z m 62 238 l 783 238 l 821 430 l 100 430 z "},"≠":{"ha":911,"x_min":0,"x_max":0,"o":"m 858 621 l 895 814 l 712 814 l 840 1053 l 698 1053 l 570 814 l 174 814 l 137 621 l 466 621 l 363 430 l 100 430 l 62 238 l 260 238 l 144 22 l 286 22 l 402 238 l 783 238 l 821 430 l 506 430 l 608 621 z "},">":{"ha":816,"x_min":0,"x_max":0,"o":"m 212 979 l 168 758 l 434 575 l 100 401 l 43 138 l 749 552 l 751 566 z "},"<":{"ha":815,"x_min":0,"x_max":0,"o":"m 832 982 l 126 568 l 123 555 l 663 141 l 707 362 l 441 545 l 774 719 z "},"≥":{"ha":832,"x_min":0,"x_max":0,"o":"m 255 1031 l 211 854 l 477 708 l 143 570 l 85 359 l 791 690 l 794 701 z m 31 68 l 625 68 l 656 224 l 61 224 z "},"≤":{"ha":832,"x_min":0,"x_max":0,"o":"m 859 1029 l 153 699 l 150 688 l 689 357 l 733 534 l 467 680 l 801 819 z m 40 68 l 635 68 l 665 224 l 71 224 z "},"±":{"ha":766,"x_min":0,"x_max":0,"o":"m 555 773 l 591 958 l 391 958 l 355 773 l 166 773 l 132 593 l 319 593 l 281 393 l 481 393 l 520 593 l 707 593 l 742 773 z m 43 136 l 618 136 l 652 307 l 77 307 z "},"≈":{"ha":881,"x_min":0,"x_max":0,"o":"m 259 581 b 368 693 285 646 316 693 b 602 581 452 693 474 581 b 859 787 661 581 787 601 l 739 840 b 630 728 713 775 682 728 b 397 840 547 728 524 840 b 139 634 337 840 212 820 z m 191 233 b 301 345 217 298 248 345 b 534 233 385 345 406 233 b 792 439 593 233 720 253 l 671 492 b 563 380 646 427 614 380 b 330 492 479 380 456 492 b 72 286 269 492 144 472 z "},"~":{"ha":1082,"x_min":0,"x_max":0,"o":"m 258 376 b 408 514 290 456 340 514 b 711 376 516 514 547 376 b 1030 629 789 376 939 400 l 874 694 b 724 557 842 615 791 557 b 420 694 616 557 585 694 b 102 441 344 694 193 671 z "},"¬":{"ha":966,"x_min":0,"x_max":0,"o":"m 911 614 l 928 703 l 153 703 l 113 499 l 681 499 l 638 277 l 845 277 l 888 499 l 901 565 z "},"^":{"ha":615,"x_min":0,"x_max":0,"o":"m 666 743 l 455 1139 l 442 1139 l 79 743 l 274 743 l 410 891 l 491 743 z "},"∅":{"ha":966,"x_min":0,"x_max":0,"o":"m 1024 1084 l 856 1084 l 745 944 b 581 977 696 966 641 977 b 69 519 328 977 114 770 b 143 189 45 387 75 271 l -16 -10 l 154 -10 l 245 105 b 429 62 298 77 360 62 b 941 521 684 62 897 274 b 852 867 966 663 930 785 z m 245 519 b 547 789 270 661 393 789 b 614 781 570 789 593 786 l 272 351 b 245 519 245 397 235 454 z m 762 518 b 462 250 736 377 615 250 b 373 266 430 250 400 255 l 724 706 b 762 518 760 657 774 591 z "},"∞":{"ha":1537,"x_min":0,"x_max":0,"o":"m 1225 939 b 831 738 1090 939 943 863 b 500 939 765 859 644 939 b 75 549 279 939 111 751 b 368 159 35 326 167 159 b 761 361 504 159 650 237 b 1092 159 827 239 948 159 b 1517 550 1313 159 1481 347 b 1225 939 1556 769 1428 939 z m 408 354 b 262 549 313 354 243 434 b 469 745 280 660 370 745 b 707 549 562 745 652 672 b 408 354 618 441 507 354 z m 1331 549 b 1123 354 1313 441 1225 354 b 885 549 1031 354 939 427 b 1184 745 977 660 1086 745 b 1331 549 1281 745 1350 663 z "},"∫":{"ha":766,"x_min":0,"x_max":0,"o":"m -90 -203 l 14 -203 b 347 43 172 -203 292 -121 l 646 949 b 806 1092 673 1031 731 1092 l 870 1092 l 909 1289 l 805 1289 b 472 1042 647 1289 526 1206 l 172 136 b 12 -7 145 54 87 -7 l -52 -7 z "},"∏":{"ha":961,"x_min":0,"x_max":0,"o":"m 1110 1322 l 206 1322 l 167 1119 l 319 1119 l 68 -170 l 282 -170 l 533 1119 l 713 1119 l 463 -170 l 676 -170 l 926 1119 l 1071 1119 z "},"∑":{"ha":962,"x_min":0,"x_max":0,"o":"m 1066 1289 l 186 1289 l 184 1282 l 459 578 l -93 -144 l -104 -203 l 776 -203 l 815 -1 l 282 0 l 697 542 l 697 544 l 493 1085 l 1027 1085 z "},"√":{"ha":755,"x_min":0,"x_max":0,"o":"m 1215 1462 l 813 1462 l 331 515 l 298 856 l 102 856 l 234 -38 l 248 -38 l 929 1259 l 1175 1259 z "},"µ":{"ha":920,"x_min":0,"x_max":0,"o":""},"∂":{"ha":847,"x_min":0,"x_max":0,"o":"m 366 -27 b 804 431 663 -27 767 235 b 555 1103 867 762 768 1019 l 369 977 b 641 582 572 892 659 745 b 437 732 633 671 541 732 b 37 353 214 732 63 540 b 366 -27 10 159 120 -27 z m 382 182 b 250 353 275 182 232 265 b 444 524 269 448 348 524 b 571 336 546 524 597 436 b 382 182 549 248 477 182 z "},"%":{"ha":1147,"x_min":0,"x_max":0,"o":"m 338 595 b 621 850 482 595 598 717 b 417 1106 646 994 555 1106 b 134 850 273 1106 157 983 b 338 595 109 704 201 595 z m 41 0 l 229 0 l 1152 1094 l 964 1094 z m 360 736 b 268 850 302 736 257 785 b 393 964 277 909 331 964 b 485 850 452 964 496 916 b 360 736 475 791 422 736 z m 785 -14 b 1068 243 929 -14 1045 109 b 864 498 1093 387 1002 498 b 581 242 720 498 604 376 b 785 -14 555 98 646 -14 z m 807 128 b 715 242 749 128 704 176 b 840 355 724 301 778 355 b 932 242 899 355 943 307 b 807 128 922 182 869 128 z "},"‰":{"ha":1683,"x_min":0,"x_max":0,"o":"m 338 595 b 621 850 482 595 598 717 b 417 1106 646 994 555 1106 b 134 850 273 1106 157 983 b 338 595 109 704 201 595 z m 41 0 l 229 0 l 1152 1094 l 964 1094 z m 360 736 b 268 850 302 736 257 785 b 393 964 277 909 331 964 b 485 850 452 964 496 916 b 360 736 475 791 422 736 z m 785 -14 b 1068 243 929 -14 1045 109 b 864 498 1093 387 1002 498 b 581 242 720 498 604 376 b 785 -14 555 98 646 -14 z m 1320 -14 b 1604 243 1465 -14 1581 109 b 1400 498 1629 387 1538 498 b 1116 242 1255 498 1139 376 b 1320 -14 1091 98 1182 -14 z m 807 128 b 715 242 749 128 704 176 b 840 355 724 301 778 355 b 932 242 899 355 943 307 b 807 128 922 182 869 128 z m 1343 128 b 1251 242 1284 128 1240 176 b 1376 355 1260 301 1314 355 b 1468 242 1434 355 1478 307 b 1343 128 1457 182 1405 128 z "},"↑":{"ha":1457,"x_min":0,"x_max":0,"o":"m 1198 672 l 780 1103 l 362 672 l 476 558 l 685 770 l 685 -82 l 875 -82 l 875 770 l 1084 558 z "},"↗":{"ha":1457,"x_min":0,"x_max":0,"o":"m 557 939 l 557 777 l 855 780 l 252 177 l 387 43 l 989 646 l 987 348 l 1148 348 l 1158 948 z "},"→":{"ha":1457,"x_min":0,"x_max":0,"o":"m 922 942 l 808 828 l 1021 619 l 168 619 l 168 429 l 1021 429 l 808 220 l 922 106 l 1354 524 z "},"↘":{"ha":1457,"x_min":0,"x_max":0,"o":"m 596 111 l 1196 101 l 1187 701 l 1025 701 l 1028 404 l 425 1006 l 291 872 l 894 269 l 596 272 z "},"↓":{"ha":1457,"x_min":0,"x_max":0,"o":"m 1026 490 l 817 278 l 817 1131 l 627 1131 l 627 278 l 418 490 l 304 376 l 722 -55 l 1140 376 z "},"↙":{"ha":1457,"x_min":0,"x_max":0,"o":"m 1253 886 l 1118 1020 l 515 417 l 518 715 l 357 715 l 347 115 l 947 124 l 947 286 l 650 283 z "},"←":{"ha":1457,"x_min":0,"x_max":0,"o":"m 1335 619 l 482 619 l 694 828 l 581 942 l 149 524 l 581 106 l 694 220 l 482 429 l 1335 429 z "},"↖":{"ha":1457,"x_min":0,"x_max":0,"o":"m 1208 163 l 606 766 l 903 763 l 903 924 l 303 934 l 313 334 l 474 334 l 471 631 l 1074 28 z "},"↔":{"ha":1457,"x_min":0,"x_max":0,"o":"m 967 942 l 853 828 l 1065 619 l 437 619 l 650 828 l 536 942 l 104 524 l 536 106 l 650 220 l 437 429 l 1065 429 l 853 220 l 967 106 l 1398 524 z "},"↕":{"ha":1457,"x_min":0,"x_max":0,"o":"m 1164 286 l 1050 399 l 842 187 l 842 815 l 1050 603 l 1164 717 l 747 1148 l 329 717 l 443 603 l 652 815 l 652 187 l 443 399 l 329 286 l 747 -146 z "},"◊":{"ha":812,"x_min":0,"x_max":0,"o":"m 331 30 l 700 528 l 525 1027 l 159 528 z m 369 277 l 294 509 l 488 780 l 565 549 z "},"@":{"ha":1558,"x_min":0,"x_max":0,"o":"m 607 -326 b 804 -290 686 -326 743 -315 l 810 -94 b 656 -123 753 -117 703 -123 b 270 349 392 -123 229 70 b 915 926 315 655 583 926 b 1289 473 1211 926 1333 711 b 1051 130 1259 319 1157 130 b 1014 234 996 130 1002 183 b 1024 273 1017 246 1022 265 l 1156 697 l 998 697 l 938 595 b 800 703 942 653 899 701 b 456 385 621 707 485 557 b 648 93 427 217 513 93 b 829 208 730 93 810 138 b 1008 -35 798 58 846 -35 b 1529 507 1287 -35 1491 240 b 951 1139 1577 840 1367 1139 b 34 328 503 1139 94 790 b 607 -326 -17 -71 221 -326 z m 726 265 b 647 377 675 265 635 300 b 807 530 660 466 729 530 b 884 420 878 530 895 476 b 726 265 869 343 801 265 z "},"&":{"ha":1022,"x_min":0,"x_max":0,"o":"m 952 193 b 808 252 911 193 861 216 b 918 549 852 336 888 435 l 709 546 b 654 392 690 488 672 437 b 446 826 528 532 427 713 b 540 923 456 885 496 923 b 618 838 583 923 615 886 l 826 880 b 572 1125 819 1031 718 1125 b 227 835 396 1125 250 991 b 257 619 218 769 230 695 b 33 332 133 555 57 460 b 374 -24 -7 119 126 -24 b 681 83 503 -24 602 14 b 911 -10 764 25 846 -10 z m 251 328 b 335 458 262 386 294 426 b 523 219 387 373 452 290 b 396 191 488 200 447 191 b 251 328 264 191 237 256 z "},"¶":{"ha":1017,"x_min":0,"x_max":0,"o":"m 594 1119 b 217 825 393 1119 252 1005 b 469 476 180 629 295 476 l 498 476 l 392 -69 l 545 -69 l 775 1119 z m 870 1119 l 638 -75 l 787 -75 l 1019 1119 z "},"§":{"ha":872,"x_min":0,"x_max":0,"o":"m 583 782 b 456 886 494 827 446 842 b 544 936 465 924 503 936 b 666 869 600 936 641 913 l 826 990 b 560 1139 807 1063 701 1139 b 262 923 408 1139 289 1053 b 300 745 246 850 265 791 b 193 578 241 701 204 642 b 359 342 172 456 260 388 b 496 217 437 306 509 273 b 397 161 488 176 442 161 b 219 259 316 161 245 207 l 81 123 b 370 -42 104 37 227 -42 b 691 195 527 -42 659 52 b 661 367 707 267 691 323 b 760 526 716 406 747 454 b 583 782 781 650 722 713 z m 384 570 b 461 630 389 602 422 624 b 568 528 516 606 578 577 b 518 477 562 503 543 487 l 517 477 b 384 570 430 520 376 525 z "},"©":{"ha":1133,"x_min":0,"x_max":0,"o":"m 505 -60 b 1099 484 813 -60 1056 176 b 657 1026 1140 784 970 1026 b 64 484 347 1026 106 788 b 505 -60 23 189 187 -60 z m 519 46 b 165 483 273 46 132 250 b 644 921 199 714 397 921 b 997 483 888 921 1031 718 b 519 46 963 252 766 46 z m 536 157 b 744 245 610 157 693 184 l 684 362 b 565 315 649 334 606 315 b 437 515 471 315 414 411 b 614 659 457 604 526 659 b 732 612 665 659 707 641 l 831 731 b 635 817 779 787 720 817 b 286 515 467 817 321 698 b 536 157 248 318 358 157 z "},"®":{"ha":719,"x_min":0,"x_max":0,"o":"m 406 1093 b 72 802 249 1093 106 986 b 313 483 39 622 135 483 b 648 775 478 483 616 601 b 406 1093 680 953 585 1093 z m 580 774 b 324 547 553 630 442 547 b 139 802 186 547 113 659 b 395 1030 165 942 273 1030 b 580 774 533 1030 606 918 z m 385 945 l 294 945 l 234 638 l 298 638 l 326 781 l 391 638 l 460 638 l 400 760 b 471 846 438 772 465 805 b 385 945 481 911 433 945 z m 408 846 b 359 807 406 823 385 807 l 330 807 l 345 884 l 374 884 b 408 846 395 884 412 868 z "},"™":{"ha":884,"x_min":0,"x_max":0,"o":"m 892 1105 l 616 800 l 476 1105 l 466 1105 l 374 629 l 469 629 l 507 823 l 591 637 l 752 825 l 714 629 l 810 629 l 903 1105 z m 382 1001 l 399 1093 l 91 1093 l 73 1001 l 180 1001 l 108 629 l 203 629 l 276 1001 z "},"°":{"ha":471,"x_min":0,"x_max":0,"o":"m 309 732 b 527 923 422 732 511 817 b 362 1115 544 1035 471 1115 b 144 923 250 1115 160 1030 b 309 732 128 810 201 732 z m 325 829 b 241 923 270 829 234 869 b 347 1018 249 975 291 1018 b 430 924 401 1018 437 976 b 325 829 423 877 385 829 z "},"|":{"ha":402,"x_min":0,"x_max":0,"o":"m -16 -305 l 128 -305 l 432 1255 l 288 1255 z "},"¦":{"ha":402,"x_min":0,"x_max":0,"o":"m 155 576 l 300 576 l 432 1255 l 288 1255 z m -16 -305 l 128 -305 l 260 373 l 116 373 z "},"†":{"ha":464,"x_min":0,"x_max":0,"o":"m 557 963 l 408 963 l 438 1119 l 302 1119 l 271 963 l 123 963 l 101 852 l 250 852 l 85 0 l 221 0 l 387 852 l 536 852 z "},"‡":{"ha":464,"x_min":0,"x_max":0,"o":"m 536 852 l 557 963 l 408 963 l 438 1119 l 302 1119 l 271 963 l 123 963 l 101 852 l 250 852 l 136 267 l -12 267 l -34 156 l 115 156 l 85 0 l 221 0 l 252 156 l 401 156 l 422 267 l 273 267 l 387 852 z "},"℮":{"ha":1329,"x_min":0,"x_max":0,"o":"m 715 -22 b 1250 284 984 -22 1187 142 l 1176 284 b 715 45 1112 161 922 45 b 286 222 567 45 408 105 l 286 505 l 1300 505 b 1305 591 1303 524 1305 562 b 719 1109 1305 874 1052 1109 b 83 544 376 1109 83 859 b 715 -22 83 222 386 -22 z m 286 581 l 286 867 b 719 1042 401 975 553 1042 b 1117 882 884 1042 1016 976 l 1117 581 z "},"ʼ":{"ha":287,"x_min":0,"x_max":0,"o":"m 83 760 l 259 760 l 411 1119 l 201 1119 z "},"̈":{"ha":0,"x_min":0,"x_max":0,"o":"m -374 926 b -277 1008 -330 926 -286 963 b -343 1090 -269 1052 -299 1090 b -441 1008 -388 1090 -432 1052 b -374 926 -450 963 -419 926 z m -71 926 b 27 1008 -26 926 18 963 b -39 1090 36 1052 5 1090 b -136 1008 -83 1090 -127 1052 b -71 926 -145 963 -115 926 z "},"̇":{"ha":0,"x_min":0,"x_max":0,"o":"m -221 925 b -108 1019 -170 925 -118 967 b -184 1115 -98 1070 -133 1115 b -298 1019 -237 1115 -288 1070 b -221 925 -308 968 -274 925 z "},"̀":{"ha":0,"x_min":0,"x_max":0,"o":"m -177 904 l -22 904 l -105 1126 l -295 1126 z "},"́":{"ha":0,"x_min":0,"x_max":0,"o":"m -183 904 l 21 1126 l -169 1126 l -338 904 z "},"̋":{"ha":0,"x_min":0,"x_max":0,"o":"m -534 904 l -400 904 l -222 1126 l -392 1126 z m -304 904 l -163 904 l 62 1126 l -121 1126 z "},"̂":{"ha":0,"x_min":0,"x_max":0,"o":"m -523 913 l -342 913 l -227 1010 l -147 913 l 15 913 l -163 1112 l -271 1112 z "},"̌":{"ha":0,"x_min":0,"x_max":0,"o":"m 15 1112 l -166 1112 l -281 1016 l -361 1112 l -523 1112 l -345 913 l -237 913 z "},"̆":{"ha":0,"x_min":0,"x_max":0,"o":"m -214 916 b 12 1114 -97 916 -9 998 l -90 1114 b -203 1012 -101 1054 -149 1012 b -280 1114 -256 1012 -291 1057 l -382 1114 b -214 916 -401 1008 -338 916 z "},"̊":{"ha":0,"x_min":0,"x_max":0,"o":"m -182 879 b -7 1029 -96 879 -22 946 b -130 1180 7 1118 -50 1180 b -308 1029 -217 1180 -294 1114 b -182 879 -322 946 -269 879 z m -169 968 b -219 1029 -203 968 -226 994 b -146 1090 -212 1065 -180 1090 b -96 1029 -112 1090 -90 1063 b -169 968 -103 993 -135 968 z "},"̃":{"ha":0,"x_min":0,"x_max":0,"o":"m -471 920 b -378 1006 -451 970 -420 1006 b -188 920 -310 1006 -291 920 b 12 1078 -140 920 -45 935 l -86 1119 b -180 1033 -106 1069 -138 1033 b -370 1119 -248 1033 -267 1119 b -569 961 -418 1119 -512 1104 z "},"̄":{"ha":0,"x_min":0,"x_max":0,"o":"m -412 947 l -17 947 l 5 1057 l -390 1057 z "},"̒":{"ha":0,"x_min":0,"x_max":0,"o":"m -123 1194 b -312 1015 -216 1194 -294 1106 b -233 894 -328 936 -289 894 b -116 982 -175 894 -125 935 b -184 1058 -106 1031 -151 1058 b -186 1089 -189 1066 -190 1072 b -76 1171 -176 1145 -112 1171 b -123 1194 -75 1177 -90 1194 z "},"̦":{"ha":0,"x_min":0,"x_max":0,"o":"m -284 -385 b -96 -205 -192 -385 -113 -296 b -174 -84 -80 -126 -119 -84 b -292 -172 -233 -84 -283 -125 b -223 -248 -301 -222 -257 -248 b -221 -279 -218 -256 -218 -262 b -332 -361 -232 -336 -296 -361 b -284 -385 -333 -368 -317 -385 z "},"̧":{"ha":0,"x_min":0,"x_max":0,"o":"m -360 -373 b -49 -172 -205 -373 -70 -278 b -119 -64 -37 -109 -70 -64 b -149 -66 -130 -64 -137 -64 l -60 23 l -168 23 l -297 -111 l -277 -146 b -242 -142 -263 -144 -252 -142 b -199 -178 -205 -142 -196 -160 b -389 -240 -206 -215 -263 -240 z "},"̨":{"ha":0,"x_min":0,"x_max":0,"o":"m -73 -362 l -96 -210 b -173 -221 -130 -218 -160 -221 b -222 -165 -218 -221 -222 -180 b -82 0 -222 -114 -178 -70 l -182 19 b -377 -217 -286 -12 -377 -102 b -185 -376 -377 -316 -309 -376 b -73 -362 -153 -376 -115 -372 z "},"̵":{"ha":0,"x_min":0,"x_max":0,"o":"m -550 426 l -15 426 l 15 582 l -520 582 z "},"̶":{"ha":0,"x_min":0,"x_max":0,"o":"m -722 426 l 273 426 l 303 582 l -692 582 z "},"̷":{"ha":0,"x_min":0,"x_max":0,"o":"m -498 625 l 49 970 l 82 1143 l -465 796 z "},"̸":{"ha":0,"x_min":0,"x_max":0,"o":"m -913 -76 l -727 -76 l 110 877 l -75 877 z "},"¨":{"ha":407,"x_min":0,"x_max":0,"o":"m 33 926 b 130 1008 77 926 121 963 b 64 1090 138 1052 108 1090 b -34 1008 19 1090 -25 1052 b 33 926 -43 963 -12 926 z m 336 926 b 434 1008 381 926 425 963 b 368 1090 443 1052 412 1090 b 271 1008 323 1090 279 1052 b 336 926 262 963 292 926 z "},"˙":{"ha":407,"x_min":0,"x_max":0,"o":"m 186 925 b 299 1019 237 925 289 967 b 222 1115 309 1070 274 1115 b 109 1019 170 1115 119 1070 b 186 925 99 968 133 925 z "},"`":{"ha":407,"x_min":0,"x_max":0,"o":"m 140 904 l 295 904 l 212 1126 l 22 1126 z "},"´":{"ha":407,"x_min":0,"x_max":0,"o":"m 134 904 l 338 1126 l 148 1126 l -22 904 z "},"˝":{"ha":407,"x_min":0,"x_max":0,"o":"m -35 904 l 99 904 l 277 1126 l 107 1126 z m 195 904 l 336 904 l 562 1126 l 378 1126 z "},"ˆ":{"ha":407,"x_min":0,"x_max":0,"o":"m -53 913 l 128 913 l 243 1010 l 323 913 l 485 913 l 307 1112 l 199 1112 z "},"ˇ":{"ha":407,"x_min":0,"x_max":0,"o":"m 485 1112 l 304 1112 l 189 1016 l 109 1112 l -53 1112 l 125 913 l 233 913 z "},"˘":{"ha":407,"x_min":0,"x_max":0,"o":"m 193 916 b 419 1114 310 916 397 998 l 317 1114 b 203 1012 306 1054 258 1012 b 127 1114 151 1012 116 1057 l 25 1114 b 193 916 6 1008 68 916 z "},"˚":{"ha":407,"x_min":0,"x_max":0,"o":"m 133 879 b 308 1029 219 879 294 946 b 185 1180 323 1118 265 1180 b 7 1029 98 1180 22 1114 b 133 879 -7 946 47 879 z m 146 968 b 96 1029 112 968 90 994 b 169 1090 103 1065 135 1090 b 219 1029 203 1090 226 1063 b 146 968 212 993 180 968 z "},"˜":{"ha":503,"x_min":0,"x_max":0,"o":"m 86 920 b 180 1006 106 970 138 1006 b 370 920 248 1006 267 920 b 569 1078 418 920 512 935 l 471 1119 b 378 1033 451 1069 419 1033 b 188 1119 310 1033 291 1119 b -12 961 140 1119 45 1104 z "},"¯":{"ha":407,"x_min":0,"x_max":0,"o":"m -5 947 l 390 947 l 412 1057 l 17 1057 z "},"¸":{"ha":407,"x_min":0,"x_max":0,"o":"m 47 -373 b 358 -172 201 -373 337 -278 b 288 -64 370 -109 337 -64 b 258 -66 277 -64 270 -64 l 347 23 l 239 23 l 110 -111 l 130 -146 b 165 -142 144 -144 155 -142 b 208 -178 201 -142 211 -160 b 18 -240 201 -215 144 -240 z "},"˛":{"ha":407,"x_min":0,"x_max":0,"o":"m 334 -362 l 311 -210 b 234 -221 277 -218 247 -221 b 185 -165 189 -221 185 -180 b 325 0 185 -114 229 -70 l 224 19 b 30 -217 121 -12 30 -102 b 222 -376 30 -316 98 -376 b 334 -362 254 -376 292 -372 z "}}}
